<?xml version="1.0" encoding="UTF-8"?>
<svg version="1.1" xmlns="http://www.w3.org/2000/svg" width="316" height="97">
<path d="M0 0 C2.57685111 -0.34188191 4.90890417 -0.49194209 7.4921875 -0.50390625 C8.60571091 -0.51888405 8.60571091 -0.51888405 9.74172974 -0.53416443 C11.31360291 -0.54936213 12.88557296 -0.55638971 14.45751953 -0.5559082 C16.86002896 -0.56245918 19.25838109 -0.6168778 21.66015625 -0.67382812 C23.18748586 -0.68263259 24.71483512 -0.68858521 26.2421875 -0.69140625 C26.95897675 -0.7129628 27.67576599 -0.73451935 28.41427612 -0.75672913 C30.45654297 -0.72875977 30.45654297 -0.72875977 34 0 C38 4.69758302 38 4.69758302 38 8 C46.25 8 54.5 8 63 8 C62.93296875 10.87203125 62.8659375 13.7440625 62.796875 16.703125 C61.90646955 44.82901213 61.90646955 44.82901213 74.45947266 69.12304688 C76.89215147 72.08698265 78.79450139 75.33589602 80.75 78.625 C81.38421875 79.62789063 82.0184375 80.63078125 82.671875 81.6640625 C84 84 84 84 84 86 C78.9648329 86.19818991 73.93194594 86.34311223 68.89379883 86.43945312 C67.18148246 86.47961717 65.46943936 86.53416398 63.75805664 86.60351562 C61.2924471 86.70090828 58.8304669 86.74598724 56.36328125 86.78125 C55.60163162 86.82254028 54.83998199 86.86383057 54.05525208 86.90637207 C51.87231445 86.90820312 51.87231445 86.90820312 48 86 C46.78109741 84.203125 46.78109741 84.203125 45.70776367 82.01757812 C44.22909973 79.24198116 43.64164532 78.2051802 40.60151672 77.23303223 C37.48091573 76.94073729 34.44663396 76.89118956 31.3125 76.9375 C30.17723877 76.92984619 29.04197754 76.92219238 27.87231445 76.91430664 C25.47506152 76.9088692 23.07768987 76.92358737 20.68066406 76.95703125 C17.01098151 76.9998718 13.34912654 76.9574469 9.6796875 76.90625 C7.34894105 76.91153659 5.01819948 76.92178668 2.6875 76.9375 C1.59155518 76.92130615 0.49561035 76.9051123 -0.63354492 76.88842773 C-3.63476246 76.96229587 -6.13854358 77.08498638 -9 78 C-10.65519187 79.96173319 -11.65255669 81.90516439 -12.78109741 84.203125 C-14 86 -14 86 -17.87231445 86.90820312 C-19.36990087 86.90694694 -20.8678901 86.86231762 -22.36328125 86.78125 C-23.15526413 86.76993042 -23.94724701 86.75861084 -24.76322937 86.74694824 C-27.28216071 86.70231285 -29.79530402 86.60200622 -32.3125 86.5 C-34.02400604 86.45985496 -35.73560175 86.42335593 -37.44726562 86.390625 C-41.63372577 86.30262359 -45.8158834 86.16469159 -50 86 C-48.47175443 81.80926795 -46.39432921 78.05830693 -44.12109375 74.23828125 C-43.56289696 73.29048042 -43.56289696 73.29048042 -42.99342346 72.3235321 C-41.81139036 70.31790065 -40.62462273 68.31512233 -39.4375 66.3125 C-38.24780261 64.29859295 -37.05908117 62.28411409 -35.87086487 60.26933289 C-35.13295961 59.01886912 -34.39401134 57.76902013 -33.65391541 56.51985168 C-30.3730548 50.97369033 -29.81735752 47.28756856 -29.71875 40.87109375 C-29.70034058 39.96625748 -29.68193115 39.0614212 -29.66296387 38.12916565 C-29.58410452 34.24712198 -29.51639791 30.36490164 -29.44775391 26.48266602 C-29.39615927 23.65371766 -29.33886514 20.82492483 -29.28125 17.99609375 C-29.26767456 17.11070419 -29.25409912 16.22531464 -29.2401123 15.31309509 C-29.11282424 9.11282424 -29.11282424 9.11282424 -28 8 C-26.21928754 7.91273777 -24.4351686 7.89300959 -22.65234375 7.90234375 C-21.57275391 7.90556641 -20.49316406 7.90878906 -19.38085938 7.91210938 C-17.67639648 7.92467773 -17.67639648 7.92467773 -15.9375 7.9375 C-14.22723633 7.94426758 -14.22723633 7.94426758 -12.48242188 7.95117188 C-9.65489649 7.96300253 -6.8274736 7.9794859 -4 8 C-3.71125 7.236875 -3.4225 6.47375 -3.125 5.6875 C-2 3 -2 3 0 0 Z " fill="#FAFBFB" transform="translate(56,2)"/>
<path d="M0 0 C2.57685111 -0.34188191 4.90890417 -0.49194209 7.4921875 -0.50390625 C8.60571091 -0.51888405 8.60571091 -0.51888405 9.74172974 -0.53416443 C11.31360291 -0.54936213 12.88557296 -0.55638971 14.45751953 -0.5559082 C16.86002896 -0.56245918 19.25838109 -0.6168778 21.66015625 -0.67382812 C23.18748586 -0.68263259 24.71483512 -0.68858521 26.2421875 -0.69140625 C26.95897675 -0.7129628 27.67576599 -0.73451935 28.41427612 -0.75672913 C30.45654297 -0.72875977 30.45654297 -0.72875977 34 0 C38 4.69758302 38 4.69758302 38 8 C46.25 8 54.5 8 63 8 C62.93296875 10.87203125 62.8659375 13.7440625 62.796875 16.703125 C61.90646955 44.82901213 61.90646955 44.82901213 74.45947266 69.12304688 C76.89215147 72.08698265 78.79450139 75.33589602 80.75 78.625 C81.38421875 79.62789063 82.0184375 80.63078125 82.671875 81.6640625 C84 84 84 84 84 86 C78.9648329 86.19818991 73.93194594 86.34311223 68.89379883 86.43945312 C67.18148246 86.47961717 65.46943936 86.53416398 63.75805664 86.60351562 C61.2924471 86.70090828 58.8304669 86.74598724 56.36328125 86.78125 C55.60163162 86.82254028 54.83998199 86.86383057 54.05525208 86.90637207 C51.87231445 86.90820312 51.87231445 86.90820312 48 86 C46.78109741 84.203125 46.78109741 84.203125 45.70776367 82.01757812 C44.22909973 79.24198116 43.64164532 78.2051802 40.60151672 77.23303223 C37.48091573 76.94073729 34.44663396 76.89118956 31.3125 76.9375 C30.17723877 76.92984619 29.04197754 76.92219238 27.87231445 76.91430664 C25.47506152 76.9088692 23.07768987 76.92358737 20.68066406 76.95703125 C17.01098151 76.9998718 13.34912654 76.9574469 9.6796875 76.90625 C7.34894105 76.91153659 5.01819948 76.92178668 2.6875 76.9375 C1.59155518 76.92130615 0.49561035 76.9051123 -0.63354492 76.88842773 C-3.63476246 76.96229587 -6.13854358 77.08498638 -9 78 C-10.65519187 79.96173319 -11.65255669 81.90516439 -12.78109741 84.203125 C-14 86 -14 86 -17.87231445 86.90820312 C-19.36990087 86.90694694 -20.8678901 86.86231762 -22.36328125 86.78125 C-23.15526413 86.76993042 -23.94724701 86.75861084 -24.76322937 86.74694824 C-27.28216071 86.70231285 -29.79530402 86.60200622 -32.3125 86.5 C-34.02400604 86.45985496 -35.73560175 86.42335593 -37.44726562 86.390625 C-41.63372577 86.30262359 -45.8158834 86.16469159 -50 86 C-48.47175443 81.80926795 -46.39432921 78.05830693 -44.12109375 74.23828125 C-43.56289696 73.29048042 -43.56289696 73.29048042 -42.99342346 72.3235321 C-41.81139036 70.31790065 -40.62462273 68.31512233 -39.4375 66.3125 C-38.24780261 64.29859295 -37.05908117 62.28411409 -35.87086487 60.26933289 C-35.13295961 59.01886912 -34.39401134 57.76902013 -33.65391541 56.51985168 C-30.3730548 50.97369033 -29.81735752 47.28756856 -29.71875 40.87109375 C-29.70034058 39.96625748 -29.68193115 39.0614212 -29.66296387 38.12916565 C-29.58410452 34.24712198 -29.51639791 30.36490164 -29.44775391 26.48266602 C-29.39615927 23.65371766 -29.33886514 20.82492483 -29.28125 17.99609375 C-29.26767456 17.11070419 -29.25409912 16.22531464 -29.2401123 15.31309509 C-29.11282424 9.11282424 -29.11282424 9.11282424 -28 8 C-26.21928754 7.91273777 -24.4351686 7.89300959 -22.65234375 7.90234375 C-21.57275391 7.90556641 -20.49316406 7.90878906 -19.38085938 7.91210938 C-17.67639648 7.92467773 -17.67639648 7.92467773 -15.9375 7.9375 C-14.22723633 7.94426758 -14.22723633 7.94426758 -12.48242188 7.95117188 C-9.65489649 7.96300253 -6.8274736 7.9794859 -4 8 C-3.71125 7.236875 -3.4225 6.47375 -3.125 5.6875 C-2 3 -2 3 0 0 Z M-25 12 C-25 30.15 -25 48.3 -25 67 C2.72 67 30.44 67 59 67 C59 48.85 59 30.7 59 12 C31.28 12 3.56 12 -25 12 Z " fill="#39499F" transform="translate(56,2)"/>
<path d="M0 0 C13.86 0 27.72 0 42 0 C42.144375 4.29 42.28875 8.58 42.4375 13 C42.50122803 14.33675781 42.56495605 15.67351563 42.63061523 17.05078125 C42.72367065 22.77990748 42.76458505 26.9719392 38.90625 31.4375 C37.62937303 32.65206266 36.32697899 33.84038626 35 35 C33.81760265 36.20186002 32.64162571 37.41007556 31.47265625 38.625 C30.33854602 39.7526296 29.20184517 40.87765999 28.0625 42 C27.47404297 42.58394531 26.88558594 43.16789062 26.27929688 43.76953125 C24.85520207 45.18204805 23.4279475 46.5913781 22 48 C13.22069025 43.92265259 4.70099746 36.45262539 0 28 C-2.1867509 18.59313473 -0.83818332 9.59254248 0 0 Z M21 10 C19.35 11.98 17.7 13.96 16 16 C16.66 16 17.32 16 18 16 C18 17.98 18 19.96 18 22 C19.98 22 21.96 22 24 22 C24 20.02 24 18.04 24 16 C24.99 15.67 25.98 15.34 27 15 C25.02 13.35 23.04 11.7 21 10 Z M10 21 C8.35 22.98 6.7 24.96 5 27 C7.1099784 29.25590249 7.1099784 29.25590249 10 31 C13.28104472 30.37963682 13.28104472 30.37963682 16 29 C16 27.02 16 25.04 16 23 C14.35 23 12.7 23 11 23 C10.67 22.34 10.34 21.68 10 21 Z M32 21 C32 21.66 32 22.32 32 23 C30.02 23 28.04 23 26 23 C26 24.98 26 26.96 26 29 C27.65 29 29.3 29 31 29 C31.33 29.99 31.66 30.98 32 32 C33.65 30.02 35.3 28.04 37 26 C35.35 24.35 33.7 22.7 32 21 Z M18 31 C18 32.98 18 34.96 18 37 C17.01 37.495 17.01 37.495 16 38 C17.32 39.32 18.64 40.64 20 42 C23.16115776 40.63016497 23.9927092 40.0109362 26 37 C25.34 37 24.68 37 24 37 C24 35.02 24 33.04 24 31 C22.02 31 20.04 31 18 31 Z " fill="#001689" transform="translate(219,13)"/>
<path d="M0 0 C4.93232456 1.47421433 6.71312745 4.08908349 9.23231506 8.46479797 C10.23017336 10.32865001 11.17391949 12.2141115 12.11694336 14.10620117 C12.78516854 15.35040987 13.45831674 16.59198769 14.13647461 17.83081055 C15.41786057 20.18837004 16.65992084 22.55539118 17.88745117 24.94262695 C19.17973461 27.44028128 20.52170208 29.87083937 21.95288086 32.28979492 C23.49194336 35.04370117 23.49194336 35.04370117 23.49194336 37.04370117 C18.87194336 37.04370117 14.25194336 37.04370117 9.49194336 37.04370117 C7.48673339 33.58829471 5.48759188 30.12962316 3.49194336 26.66870117 C2.91959961 25.68385742 2.34725586 24.69901367 1.75756836 23.68432617 C1.21616211 22.74331055 0.67475586 21.80229492 0.11694336 20.83276367 C-0.38579102 19.96345215 -0.88852539 19.09414063 -1.40649414 18.19848633 C-2.50805664 16.04370117 -2.50805664 16.04370117 -2.50805664 14.04370117 C-3.16805664 14.04370117 -3.82805664 14.04370117 -4.50805664 14.04370117 C-4.73235352 14.67663086 -4.95665039 15.30956055 -5.18774414 15.96166992 C-7.03221941 20.26726457 -9.33520966 24.27864918 -11.63305664 28.35620117 C-12.10098633 29.1921582 -12.56891602 30.02811523 -13.05102539 30.8894043 C-14.20067398 32.9423482 -15.35400178 34.993231 -16.50805664 37.04370117 C-21.12805664 37.04370117 -25.74805664 37.04370117 -30.50805664 37.04370117 C-28.64356659 31.45023101 -26.31188368 27.08189132 -23.23144531 22.17041016 C-21.10414296 18.75514641 -19.13685566 15.36644212 -17.40649414 11.73120117 C-17.05594971 11.04018311 -16.70540527 10.34916504 -16.34423828 9.63720703 C-15.67944113 8.31823552 -15.05573864 6.97744163 -14.48242188 5.61621094 C-11.41309297 -0.22971876 -6.14543889 -0.2999631 0 0 Z " fill="#2F4099" transform="translate(76.508056640625,15.956298828125)"/>
<path d="M0 0 C3.42328701 3.42328701 5.70561825 6.5168102 8.07421875 10.62890625 C8.44352005 11.25981674 8.81282135 11.89072723 9.1933136 12.54075623 C9.9684669 13.86783535 10.74065108 15.19665275 11.51000977 16.52709961 C12.68790366 18.56319776 13.87536197 20.59347165 15.06445312 22.62304688 C15.81827436 23.91633691 16.57154869 25.20994591 17.32421875 26.50390625 C17.67836349 27.11021378 18.03250824 27.7165213 18.39738464 28.34120178 C19.86209451 30.88016289 21.06970127 33.2091038 22 36 C10.12 36 -1.76 36 -14 36 C-15.65 33.03 -17.3 30.06 -19 27 C-12.73 27 -6.46 27 0 27 C0 18.09 0 9.18 0 0 Z " fill="#A8AAAE" transform="translate(118,52)"/>
<path d="M0 0 C0.66 0 1.32 0 2 0 C2 8.91 2 17.82 2 27 C8.27 27 14.54 27 21 27 C19.35 29.97 17.7 32.94 16 36 C4.12 36 -7.76 36 -20 36 C-18.32055181 31.80137952 -16.41689471 28.09622678 -14.12109375 24.23828125 C-13.74896255 23.60641403 -13.37683136 22.97454681 -12.99342346 22.3235321 C-11.81139036 20.31790065 -10.62462273 18.31512233 -9.4375 16.3125 C-8.24780261 14.29859295 -7.05908117 12.28411409 -5.87086487 10.26933289 C-5.13295961 9.01886912 -4.39401134 7.76902013 -3.65391541 6.51985168 C-1.74979115 3.30250274 -1.74979115 3.30250274 0 0 Z " fill="#A8AAAE" transform="translate(26,52)"/>
<path d="M0 0 C1.09344727 -0.03673828 1.09344727 -0.03673828 2.20898438 -0.07421875 C4.33984375 -0.0859375 4.33984375 -0.0859375 8.0625 0.375 C10.06640625 2.3984375 10.06640625 2.3984375 11.0625 4.375 C11.3925 3.055 11.7225 1.735 12.0625 0.375 C17.3425 0.375 22.6225 0.375 28.0625 0.375 C30.0625 4.375 30.0625 4.375 30.0625 7.375 C31.0525 5.065 32.0425 2.755 33.0625 0.375 C34.0525 0.705 35.0425 1.035 36.0625 1.375 C37.25 3.9375 37.25 3.9375 38.0625 6.375 C38.3925 4.395 38.7225 2.415 39.0625 0.375 C40.0525 0.375 41.0425 0.375 42.0625 0.375 C42.0625 3.015 42.0625 5.655 42.0625 8.375 C43.0525 8.375 44.0425 8.375 45.0625 8.375 C45.0625 9.365 45.0625 10.355 45.0625 11.375 C42.0925 11.375 39.1225 11.375 36.0625 11.375 C35.5675 9.89 35.5675 9.89 35.0625 8.375 C34.67449219 8.86613281 34.28648437 9.35726562 33.88671875 9.86328125 C31.45038304 11.88225753 29.99319328 11.68398805 26.875 11.5625 C25.97394531 11.53542969 25.07289063 11.50835937 24.14453125 11.48046875 C23.45746094 11.44566406 22.77039063 11.41085938 22.0625 11.375 C22.0625 8.405 22.0625 5.435 22.0625 2.375 C21.4025 2.375 20.7425 2.375 20.0625 2.375 C20.0625 5.345 20.0625 8.315 20.0625 11.375 C19.0725 11.375 18.0825 11.375 17.0625 11.375 C17.0625 8.405 17.0625 5.435 17.0625 2.375 C16.0725 2.375 15.0825 2.375 14.0625 2.375 C14.0625 5.345 14.0625 8.315 14.0625 11.375 C12.7425 10.715 11.4225 10.055 10.0625 9.375 C9.4025 9.375 8.7425 9.375 8.0625 9.375 C7.7325 10.035 7.4025 10.695 7.0625 11.375 C4.62381832 11.4829859 2.18990867 11.56226589 -0.25 11.625 C-0.94029297 11.65851563 -1.63058594 11.69203125 -2.34179688 11.7265625 C-7.45296868 11.82532911 -7.45296868 11.82532911 -9.9296875 9.5234375 C-11.25242839 6.70364104 -10.93329493 5.28578517 -9.9375 2.375 C-7.00769189 -0.55480811 -3.91905524 0.00689368 0 0 Z M-5.9375 2.375 C-7.23383621 3.44145115 -7.23383621 3.44145115 -7 5.9375 C-6.979375 6.741875 -6.95875 7.54625 -6.9375 8.375 C-5.9475 8.705 -4.9575 9.035 -3.9375 9.375 C-3.2775 9.045 -2.6175 8.715 -1.9375 8.375 C-1.9375 6.725 -1.9375 5.075 -1.9375 3.375 C-3.88353274 2.78429986 -3.88353274 2.78429986 -5.9375 2.375 Z M2.0625 2.375 C2.0625 3.035 2.0625 3.695 2.0625 4.375 C3.0525 4.375 4.0425 4.375 5.0625 4.375 C5.0625 3.715 5.0625 3.055 5.0625 2.375 C4.0725 2.375 3.0825 2.375 2.0625 2.375 Z M2.0625 6.375 C2.0625 7.035 2.0625 7.695 2.0625 8.375 C3.0525 8.375 4.0425 8.375 5.0625 8.375 C5.0625 7.715 5.0625 7.055 5.0625 6.375 C4.0725 6.375 3.0825 6.375 2.0625 6.375 Z " fill="#00168A" transform="translate(193.9375,60.625)"/>
<path d="M0 0 C3.9959662 1.33198873 4.42013437 2.97814263 6.46875 6.609375 C6.95112122 7.45511078 6.95112122 7.45511078 7.4432373 8.31793213 C8.47080531 10.12387573 9.48557926 11.93664476 10.5 13.75 C11.18274276 14.95621124 11.86632738 16.16194639 12.55078125 17.3671875 C13.81591987 19.59572588 15.07497505 21.82727644 16.33007812 24.06152344 C17.42165316 25.98231248 18.54951792 27.88304216 19.71679688 29.75878906 C21 32 21 32 21 34 C16.38 34 11.76 34 7 34 C4.95830053 30.63614272 2.94180082 27.2610367 0.9375 23.875 C0.35677734 22.92367187 -0.22394531 21.97234375 -0.82226562 20.9921875 C-1.36689453 20.0640625 -1.91152344 19.1359375 -2.47265625 18.1796875 C-2.98062744 17.33132324 -3.48859863 16.48295898 -4.01196289 15.60888672 C-5.2546767 12.32753269 -4.86007516 10.36083719 -4 7 C-2.8542711 4.50608408 -1.45203657 2.34199447 0 0 Z " fill="#070707" transform="translate(79,19)"/>
<path d="M0 0 C2.57685111 -0.34188191 4.90890417 -0.49194209 7.4921875 -0.50390625 C8.60571091 -0.51888405 8.60571091 -0.51888405 9.74172974 -0.53416443 C11.31360291 -0.54936213 12.88557296 -0.55638971 14.45751953 -0.5559082 C16.86002896 -0.56245918 19.25838109 -0.6168778 21.66015625 -0.67382812 C23.18748586 -0.68263259 24.71483512 -0.68858521 26.2421875 -0.69140625 C26.95897675 -0.7129628 27.67576599 -0.73451935 28.41427612 -0.75672913 C30.45654297 -0.72875977 30.45654297 -0.72875977 34 0 C38 4.69758302 38 4.69758302 38 8 C46.25 8 54.5 8 63 8 C63 8.33 63 8.66 63 9 C32.97 9 2.94 9 -28 9 C-28 8.67 -28 8.34 -28 8 C-20.08 8 -12.16 8 -4 8 C-3.34 6.35 -2.68 4.7 -2 3 C-1.34 2.01 -0.68 1.02 0 0 Z " fill="#A6A8B2" transform="translate(56,2)"/>
<path d="M0 0 C2.0625 0.4375 2.0625 0.4375 4 1 C4 2.32 4 3.64 4 5 C4.33 3.35 4.66 1.7 5 0 C7.60478883 -0.0809313 10.20706653 -0.14045434 12.8125 -0.1875 C13.55048828 -0.21263672 14.28847656 -0.23777344 15.04882812 -0.26367188 C20.54974762 -0.33834499 20.54974762 -0.33834499 23.01171875 1.51171875 C23.50091797 2.24841797 23.50091797 2.24841797 24 3 C24.4125 2.505 24.825 2.01 25.25 1.5 C27 0 27 0 31 0 C31.495 0.99 31.495 0.99 32 2 C32.99 1.34 33.98 0.68 35 0 C37.6875 0.375 37.6875 0.375 40 1 C39.67 1.99 39.34 2.98 39 4 C38.01 4 37.02 4 36 4 C36 5.32 36 6.64 36 8 C37.32 8 38.64 8 40 8 C40 8.99 40 9.98 40 11 C36 11 32 11 28 11 C27.67 9.02 27.34 7.04 27 5 C26.01 6.98 25.02 8.96 24 11 C23.01 10.67 22.02 10.34 21 10 C19.8125 6.9375 19.8125 6.9375 19 4 C17.95550089 7.13349732 18.06576355 7.98968256 19 11 C12 11 5 11 -2 11 C-2 10.01 -2 9.02 -2 8 C-1.01 8 -0.02 8 1 8 C0.01 7.34 -0.98 6.68 -2 6 C-1.125 1.125 -1.125 1.125 0 0 Z M8 7 C8 7.66 8 8.32 8 9 C8.99 9 9.98 9 11 9 C11 8.34 11 7.68 11 7 C10.01 7 9.02 7 8 7 Z " fill="#00158A" transform="translate(262,73)"/>
<path d="M0 0 C0.99 0 1.98 0 3 0 C3 30.36 3 60.72 3 92 C2.01 92 1.02 92 0 92 C0 61.64 0 31.28 0 0 Z " fill="#021C88" transform="translate(150,0)"/>
<path d="M0 0 C6.75 -0.125 6.75 -0.125 9 1 C9.969375 0.79375 10.93875 0.5875 11.9375 0.375 C15 0 15 0 16.875 1.4375 C17.431875 2.2109375 17.431875 2.2109375 18 3 C18.99 2.01 19.98 1.02 21 0 C21.99 1.32 22.98 2.64 24 4 C25.32 2.68 26.64 1.36 28 0 C28.66 1.98 29.32 3.96 30 6 C30.99 4.02 31.98 2.04 33 0 C33.66 0 34.32 0 35 0 C38 6.5 38 6.5 38 11 C35 11 35 11 33.3125 9.5 C32.879375 9.005 32.44625 8.51 32 8 C32 8.99 32 9.98 32 11 C28.66666667 11 25.33333333 11 22 11 C21.67 10.34 21.34 9.68 21 9 C20.67 9.66 20.34 10.32 20 11 C18.68 11 17.36 11 16 11 C14.205625 11.061875 14.205625 11.061875 12.375 11.125 C9 11 9 11 7 9 C6.875 5.875 6.875 5.875 7 3 C6.34 3 5.68 3 5 3 C5 5.64 5 8.28 5 11 C4.01 11 3.02 11 2 11 C2 8.36 2 5.72 2 3 C1.34 3 0.68 3 0 3 C0 2.01 0 1.02 0 0 Z M12 2 C10.64381501 3.12534105 10.64381501 3.12534105 10.9375 6.0625 C10.958125 7.031875 10.97875 8.00125 11 9 C11.99 9 12.98 9 14 9 C14.77242269 7.16299211 14.77242269 7.16299211 15 5 C13.64555699 3.22809091 13.64555699 3.22809091 12 2 Z " fill="#00158A" transform="translate(185,73)"/>
<path d="M0 0 C1.175625 0.020625 2.35125 0.04125 3.5625 0.0625 C4.2225 0.0625 4.8825 0.0625 5.5625 0.0625 C9.5625 0.0625 13.5625 0.0625 17.5625 0.0625 C17.5625 3.6925 17.5625 7.3225 17.5625 11.0625 C6.8125 11.1875 6.8125 11.1875 4.5625 10.0625 C3.428125 10.26875 2.29375 10.475 1.125 10.6875 C-2.4375 11.0625 -2.4375 11.0625 -4.4375 10.0625 C-6.01029672 6.91690657 -5.1790208 4.39934358 -4.4375 1.0625 C-3.4375 0.0625 -3.4375 0.0625 0 0 Z M-1.4375 2.0625 C-1.4375 4.0425 -1.4375 6.0225 -1.4375 8.0625 C-0.4475 8.0625 0.5425 8.0625 1.5625 8.0625 C2.57361093 5.01336772 2.57361093 5.01336772 1.5625 2.0625 C0.5725 2.0625 -0.4175 2.0625 -1.4375 2.0625 Z M12.5625 4.0625 C12.5625 5.3825 12.5625 6.7025 12.5625 8.0625 C12.8925 6.7425 13.2225 5.4225 13.5625 4.0625 C13.2325 4.0625 12.9025 4.0625 12.5625 4.0625 Z " fill="#001689" transform="translate(261.4375,60.9375)"/>
<path d="M0 0 C0.969375 0.20625 1.93875 0.4125 2.9375 0.625 C3.5975 0.625 4.2575 0.625 4.9375 0.625 C7.9375 0.625 7.9375 0.625 9.625 2.125 C10.058125 2.62 10.49125 3.115 10.9375 3.625 C11.5975 2.305 12.2575 0.985 12.9375 -0.375 C13.9375 0.625 13.9375 0.625 14.03515625 2.91015625 C14.02355469 3.82667969 14.01195312 4.74320312 14 5.6875 C13.99097656 6.60660156 13.98195312 7.52570313 13.97265625 8.47265625 C13.96105469 9.18292969 13.94945312 9.89320312 13.9375 10.625 C12.0625 10.3125 12.0625 10.3125 9.9375 9.625 C9.2775 8.635 8.6175 7.645 7.9375 6.625 C7.6075 7.945 7.2775 9.265 6.9375 10.625 C6.2775 10.625 5.6175 10.625 4.9375 10.625 C4.6075 9.965 4.2775 9.305 3.9375 8.625 C3.2775 9.285 2.6175 9.945 1.9375 10.625 C-3.39583333 10.95833333 -3.39583333 10.95833333 -6.0625 9.625 C-6.35546875 3.5703125 -6.35546875 3.5703125 -6.0625 1.625 C-3.0625 -0.375 -3.0625 -0.375 0 0 Z M-2.0625 2.625 C-2.3925 4.275 -2.7225 5.925 -3.0625 7.625 C-1.7425 7.625 -0.4225 7.625 0.9375 7.625 C0.9375 5.975 0.9375 4.325 0.9375 2.625 C-0.0525 2.625 -1.0425 2.625 -2.0625 2.625 Z " fill="#00158A" transform="translate(241.0625,73.375)"/>
<path d="M0 0 C3.63 0 7.26 0 11 0 C11.73182484 3.65912418 12.20177399 6.36806821 12 10 C11 11 11 11 8.49609375 11.09765625 C5.6640625 11.06510417 2.83203125 11.03255208 0 11 C0 7.37 0 3.74 0 0 Z M6 6 C5.01 6.33 4.02 6.66 3 7 C3 7.66 3 8.32 3 9 C4.65 8.67 6.3 8.34 8 8 C7.34 7.34 6.68 6.68 6 6 Z " fill="#00158A" transform="translate(303,73)"/>
<path d="M0 0 C3.3 0 6.6 0 10 0 C10 2.64 10 5.28 10 8 C10.66 8 11.32 8 12 8 C12 8.99 12 9.98 12 11 C10.02 11 8.04 11 6 11 C6 9.35 6 7.7 6 6 C5.01 6 4.02 6 3 6 C3 7.65 3 9.3 3 11 C2.01 11 1.02 11 0 11 C0 7.37 0 3.74 0 0 Z M3 2 C3 2.66 3 3.32 3 4 C3.99 4 4.98 4 6 4 C6 3.34 6 2.68 6 2 C5.01 2 4.02 2 3 2 Z " fill="#00168A" transform="translate(244,61)"/>
<path d="M0 0 C4 1 4 1 6 4 C6.33 2.68 6.66 1.36 7 0 C10.3 0 13.6 0 17 0 C17 0.66 17 1.32 17 2 C16.34 2 15.68 2 15 2 C15 4.31 15 6.62 15 9 C14.34 9 13.68 9 13 9 C13 6.69 13 4.38 13 2 C12.01 2 11.02 2 10 2 C10 4.31 10 6.62 10 9 C7.13275314 8.42655063 6.1385485 8.1385485 4 6 C3.67 6.99 3.34 7.98 3 9 C2.01 9 1.02 9 0 9 C0 6.03 0 3.06 0 0 Z " fill="#343434" transform="translate(74,55)"/>
<path d="M0 0 C3.3 0 6.6 0 10 0 C10 3.63 10 7.26 10 11 C9.01 11 8.02 11 7 11 C7 8.36 7 5.72 7 3 C6.34 3 5.68 3 5 3 C5 5.31 5 7.62 5 10 C3.68 10.33 2.36 10.66 1 11 C1 8.36 1 5.72 1 3 C0.34 3 -0.32 3 -1 3 C-0.67 2.01 -0.34 1.02 0 0 Z " fill="#001489" transform="translate(224,73)"/>
<path d="M0 0 C3.375 -0.125 3.375 -0.125 7 0 C9 2 9 2 9.3125 4.9375 C9 8 9 8 7.875 9.875 C5.21965017 11.4682099 3.03210482 11.20214032 0 11 C0 7.37 0 3.74 0 0 Z M3 2 C3 4.31 3 6.62 3 9 C3.99 8.34 4.98 7.68 6 7 C5.67 5.35 5.34 3.7 5 2 C4.34 2 3.68 2 3 2 Z " fill="#00168A" transform="translate(280,61)"/>
<path d="M0 0 C0.99 0.33 1.98 0.66 3 1 C3 3.64 3 6.28 3 9 C3.66 8.67 4.32 8.34 5 8 C5.46523063 6.10466658 5.46523063 6.10466658 5.625 3.9375 C5.74875 2.638125 5.8725 1.33875 6 0 C6.66 0 7.32 0 8 0 C8.02688151 1.64574566 8.04634123 3.29161413 8.0625 4.9375 C8.07410156 5.85402344 8.08570313 6.77054687 8.09765625 7.71484375 C8 10 8 10 7 11 C4 11.125 4 11.125 1 11 C0 10 0 10 -0.09765625 7.71484375 C-0.08605469 6.79832031 -0.07445312 5.88179688 -0.0625 4.9375 C-0.05347656 4.01839844 -0.04445312 3.09929687 -0.03515625 2.15234375 C-0.02355469 1.44207031 -0.01195312 0.73179688 0 0 Z " fill="#01168A" transform="translate(176,73)"/>
<path d="M0 0 C0.99 0 1.98 0 3 0 C6 6.5 6 6.5 6 11 C3 11 3 11 1.3125 9.5 C0.879375 9.005 0.44625 8.51 0 8 C-0.33 8.99 -0.66 9.98 -1 11 C-1.66 11 -2.32 11 -3 11 C-2.32829194 7.1936543 -1.27253436 3.64793184 0 0 Z " fill="#00158A" transform="translate(292,61)"/>
<path d="M0 0 C0.66 0 1.32 0 2 0 C2.50615298 1.26839526 3.00469099 2.53983102 3.5 3.8125 C3.91765625 4.87404297 3.91765625 4.87404297 4.34375 5.95703125 C5 8 5 8 5 11 C3.68 10.67 2.36 10.34 1 10 C1 9.34 1 8.68 1 8 C0.34 8 -0.32 8 -1 8 C-1.33 8.99 -1.66 9.98 -2 11 C-2.66 11 -3.32 11 -4 11 C-3.5247412 9.35303396 -3.04468109 7.70745272 -2.5625 6.0625 C-2.29566406 5.14597656 -2.02882812 4.22945313 -1.75390625 3.28515625 C-1 1 -1 1 0 0 Z " fill="#00158A" transform="translate(170,73)"/>
<path d="M0 0 C0.99 0 1.98 0 3 0 C3.99 2.97 4.98 5.94 6 9 C5.01 9 4.02 9 3 9 C3 8.34 3 7.68 3 7 C1.02 7.66 -0.96 8.32 -3 9 C-2.44271087 5.65626525 -1.64826111 2.96687001 0 0 Z " fill="#2F2F2F" transform="translate(67,55)"/>
<path d="M0 0 C3 1 3 1 4.1875 2.8125 C5 5 5 5 5 9 C4.34 9 3.68 9 3 9 C3 8.34 3 7.68 3 7 C1.68 7 0.36 7 -1 7 C-1 7.66 -1 8.32 -1 9 C-1.99 9 -2.98 9 -4 9 C-2.94124926 5.59687262 -1.99097846 2.98646769 0 0 Z " fill="#2E2E2E" transform="translate(45,55)"/>
<path d="M0 0 C1.32 0 2.64 0 4 0 C3.67 0.99 3.34 1.98 3 3 C2.34 3 1.68 3 1 3 C0.67 4.32 0.34 5.64 0 7 C1.32 7 2.64 7 4 7 C4 7.66 4 8.32 4 9 C1.625 9.125 1.625 9.125 -1 9 C-1.66 8.34 -2.32 7.68 -3 7 C-2.67028521 3.70285207 -2.3773161 2.3773161 0 0 Z " fill="#272727" transform="translate(99,55)"/>
<path d="M0 0 C1.98 0 3.96 0 6 0 C5.01 0.495 5.01 0.495 4 1 C4 3.31 4 5.62 4 8 C3.01 8 2.02 8 1 8 C0.67 5.36 0.34 2.72 0 0 Z " fill="#2C2C2C" transform="translate(51,56)"/>
<path d="M0 0 C0.99 0 1.98 0 3 0 C3 2.97 3 5.94 3 9 C2.01 9 1.02 9 0 9 C0 6.03 0 3.06 0 0 Z " fill="#3F3F3F" transform="translate(92,55)"/>
<path d="M0 0 C2.31 0 4.62 0 7 0 C7 0.33 7 0.66 7 1 C5.35 1.33 3.7 1.66 2 2 C1.67 4.31 1.34 6.62 1 9 C-0.61949011 6.42786866 -1.04408751 5.32330841 -0.625 2.25 C-0.41875 1.5075 -0.2125 0.765 0 0 Z " fill="#C0C0C0" transform="translate(50,55)"/>
<path d="M0 0 C0.66 0 1.32 0 2 0 C2 1.98 2 3.96 2 6 C2.99 6 3.98 6 5 6 C5 6.66 5 7.32 5 8 C3.35 8 1.7 8 0 8 C0 5.36 0 2.72 0 0 Z " fill="#151515" transform="translate(58,56)"/>
<path d="M0 0 C1.32 0 2.64 0 4 0 C4 1.65 4 3.3 4 5 C2.68 5 1.36 5 0 5 C0 3.35 0 1.7 0 0 Z " fill="#B4BADA" transform="translate(76,71)"/>
</svg>
