<?xml version="1.0" encoding="UTF-8"?>
<svg version="1.1" xmlns="http://www.w3.org/2000/svg" width="640" height="640">
<path d="M0 0 C211.2 0 422.4 0 640 0 C640 211.2 640 422.4 640 640 C428.8 640 217.6 640 0 640 C0 428.8 0 217.6 0 0 Z " fill="#EAEAEA" transform="translate(0,0)"/>
<path d="M0 0 C72.6 0 145.2 0 220 0 C220 9.57 220 19.14 220 29 C230.23 29 240.46 29 251 29 C251 38.57 251 48.14 251 58 C259.91 58 268.82 58 278 58 C278 102.55 278 147.1 278 193 C286.91 193 295.82 193 305 193 C305 220.72 305 248.44 305 277 C296.09 277 287.18 277 278 277 C278 257.53 278 238.06 278 218 C268.76 218 259.52 218 250 218 C250 237.47 250 256.94 250 277 C258.91 277 267.82 277 277 277 C277 284.92 277 292.84 277 301 C268.42 301 259.84 301 251 301 C251 310.57 251 320.14 251 330 C242.42 330 233.84 330 225 330 C225 338.91 225 347.82 225 357 C214.77 357 204.54 357 194 357 C194 365.25 194 373.5 194 382 C185.75 382 177.5 382 169 382 C169 390.58 169 399.16 169 408 C196.39 408 223.78 408 252 408 C252 418.56 252 429.12 252 440 C261.57 440 271.14 440 281 440 C281 475.64 281 511.28 281 548 C170.12 548 59.24 548 -55 548 C-55 512.36 -55 476.72 -55 440 C-45.43 440 -35.86 440 -26 440 C-26 429.44 -26 418.88 -26 408 C1.06 408 28.12 408 56 408 C56 399.42 56 390.84 56 382 C47.09 382 38.18 382 29 382 C29 373.09 29 364.18 29 355 C19.43 355 9.86 355 0 355 C0 346.09 0 337.18 0 328 C-9.24 328 -18.48 328 -28 328 C-28 318.76 -28 309.52 -28 300 C-36.58 300 -45.16 300 -54 300 C-54 290.43 -54 280.86 -54 271 C-62.91 271 -71.82 271 -81 271 C-81 217.87 -81 164.74 -81 110 C-72.09 110 -63.18 110 -54 110 C-54 92.51 -54 75.02 -54 57 C-45.42 57 -36.84 57 -28 57 C-28 47.76 -28 38.52 -28 29 C-18.76 29 -9.52 29 0 29 C0 19.43 0 9.86 0 0 Z " fill="#F9C89F" transform="translate(208,46)"/>
<path d="M0 0 C72.6 0 145.2 0 220 0 C220 9.57 220 19.14 220 29 C230.23 29 240.46 29 251 29 C251 38.57 251 48.14 251 58 C259.91 58 268.82 58 278 58 C278 102.55 278 147.1 278 193 C286.91 193 295.82 193 305 193 C305 220.72 305 248.44 305 277 C296.09 277 287.18 277 278 277 C278 257.53 278 238.06 278 218 C268.76 218 259.52 218 250 218 C250 237.47 250 256.94 250 277 C258.91 277 267.82 277 277 277 C277 284.92 277 292.84 277 301 C268.42 301 259.84 301 251 301 C251 310.57 251 320.14 251 330 C242.42 330 233.84 330 225 330 C225 338.91 225 347.82 225 357 C214.77 357 204.54 357 194 357 C194 347.76 194 338.52 194 329 C203.9 329 213.8 329 224 329 C224 274.55 224 220.1 224 164 C196.94 164 169.88 164 142 164 C142 156.08 142 148.16 142 140 C113.95 140 85.9 140 57 140 C57 130.1 57 120.2 57 110 C38.19 110 19.38 110 0 110 C0 181.61 0 253.22 0 327 C9.57 327 19.14 327 29 327 C29 336.24 29 345.48 29 355 C19.43 355 9.86 355 0 355 C0 346.09 0 337.18 0 328 C-9.24 328 -18.48 328 -28 328 C-28 318.76 -28 309.52 -28 300 C-36.58 300 -45.16 300 -54 300 C-54 290.43 -54 280.86 -54 271 C-62.91 271 -71.82 271 -81 271 C-81 217.87 -81 164.74 -81 110 C-72.09 110 -63.18 110 -54 110 C-54 92.51 -54 75.02 -54 57 C-45.42 57 -36.84 57 -28 57 C-28 47.76 -28 38.52 -28 29 C-18.76 29 -9.52 29 0 29 C0 19.43 0 9.86 0 0 Z " fill="#302321" transform="translate(208,46)"/>
<path d="M0 0 C37.29 0 74.58 0 113 0 C113 8.58 113 17.16 113 26 C140.39 26 167.78 26 196 26 C196 36.56 196 47.12 196 58 C205.57 58 215.14 58 225 58 C225 93.64 225 129.28 225 166 C114.12 166 3.24 166 -111 166 C-111 130.36 -111 94.72 -111 58 C-101.43 58 -91.86 58 -82 58 C-82 47.44 -82 36.88 -82 26 C-54.94 26 -27.88 26 0 26 C0 17.42 0 8.84 0 0 Z " fill="#3EC0CF" transform="translate(264,428)"/>
<path d="M0 0 C37.29 0 74.58 0 113 0 C113 8.58 113 17.16 113 26 C140.39 26 167.78 26 196 26 C196 36.56 196 47.12 196 58 C168.61 58 141.22 58 113 58 C113 67.24 113 76.48 113 86 C75.71 86 38.42 86 0 86 C0 76.76 0 67.52 0 58 C-27.06 58 -54.12 58 -82 58 C-82 47.44 -82 36.88 -82 26 C-54.94 26 -27.88 26 0 26 C0 17.42 0 8.84 0 0 Z " fill="#060809" transform="translate(264,428)"/>
<path d="M0 0 C9.57 0 19.14 0 29 0 C29 27.06 29 54.12 29 82 C120.74 82 212.48 82 307 82 C307 54.94 307 27.88 307 0 C316.57 0 326.14 0 336 0 C336 35.64 336 71.28 336 108 C225.12 108 114.24 108 0 108 C0 72.36 0 36.72 0 0 Z " fill="#080A0B" transform="translate(153,486)"/>
<path d="M0 0 C8.91 0 17.82 0 27 0 C27 44.55 27 89.1 27 135 C35.91 135 44.82 135 54 135 C54 162.72 54 190.44 54 219 C45.09 219 36.18 219 27 219 C27 199.53 27 180.06 27 160 C17.76 160 8.52 160 -1 160 C-1 179.47 -1 198.94 -1 219 C7.91 219 16.82 219 26 219 C26 226.92 26 234.84 26 243 C17.42 243.33 8.84 243.66 0 244 C-0.33 252.91 -0.66 261.82 -1 271 C-9.25 271 -17.5 271 -26 271 C-26 216.55 -26 162.1 -26 106 C-17.42 106 -8.84 106 0 106 C0 71.02 0 36.04 0 0 Z " fill="#060708" transform="translate(459,104)"/>
<path d="M0 0 C0.33 0 0.66 0 1 0 C1 8.58 1 17.16 1 26 C-26.06 26 -53.12 26 -81 26 C-81 36.56 -81 47.12 -81 58 C-90.57 58 -100.14 58 -110 58 C-110 93.64 -110 129.28 -110 166 C0.88 166 111.76 166 226 166 C226 158.08 226 150.16 226 142 C232.93 142 239.86 142 247 142 C247 151.9 247 161.8 247 172 C237.1 172 227.2 172 217 172 C217 181.9 217 191.8 217 202 C207.1 202 197.2 202 187 202 C187 192.1 187 182.2 187 172 C177.1 172 167.2 172 157 172 C157 181.9 157 191.8 157 202 C147.1 202 137.2 202 127 202 C127 192.1 127 182.2 127 172 C117.1 172 107.2 172 97 172 C97 181.9 97 191.8 97 202 C87.1 202 77.2 202 67 202 C67 192.1 67 182.2 67 172 C57.1 172 47.2 172 37 172 C37 181.9 37 191.8 37 202 C27.1 202 17.2 202 7 202 C7 192.1 7 182.2 7 172 C-2.9 172 -12.8 172 -23 172 C-23 181.9 -23 191.8 -23 202 C-32.9 202 -42.8 202 -53 202 C-53 192.1 -53 182.2 -53 172 C-62.9 172 -72.8 172 -83 172 C-83 181.9 -83 191.8 -83 202 C-92.9 202 -102.8 202 -113 202 C-113 172.3 -113 142.6 -113 112 C-117.62 112.33 -122.24 112.66 -127 113 C-125.515 113.99 -125.515 113.99 -124 115 C-125.32 115 -126.64 115 -128 115 C-128.66 114.34 -129.32 113.68 -130 113 C-134.29 112.67 -138.58 112.34 -143 112 C-143 102.1 -143 92.2 -143 82 C-133.1 82 -123.2 82 -113 82 C-113 72.1 -113 62.2 -113 52 C-103.1 52 -93.2 52 -83 52 C-83 42.1 -83 32.2 -83 22 C-73.1 22 -63.2 22 -53 22 C-53 22.99 -53 23.98 -53 25 C-35.51 25 -18.02 25 0 25 C0 16.75 0 8.5 0 0 Z " fill="#E7E7E7" transform="translate(263,428)"/>
<path d="M0 0 C72.27 0 144.54 0 219 0 C219 8.91 219 17.82 219 27 C146.73 27 74.46 27 0 27 C0 18.09 0 9.18 0 0 Z " fill="#040607" transform="translate(209,47)"/>
<path d="M0 0 C9.9 0 19.8 0 30 0 C30 5.28 30 10.56 30 16 C29.34 16 28.68 16 28 16 C28 25.57 28 35.14 28 45 C18.76 45 9.52 45 0 45 C0 54.24 0 63.48 0 73 C-8.58 73 -17.16 73 -26 73 C-26 90.49 -26 107.98 -26 126 C-34.91 126 -43.82 126 -53 126 C-53 179.13 -53 232.26 -53 287 C-53.33 287 -53.66 287 -54 287 C-54 261.59 -54 236.18 -54 210 C-55.98 210 -57.96 210 -60 210 C-60 219.9 -60 229.8 -60 240 C-69.9 240 -79.8 240 -90 240 C-90 230.1 -90 220.2 -90 210 C-81.09 209.67 -72.18 209.34 -63 209 C-64.98 206.525 -64.98 206.525 -67 204 C-65.75 202 -65.75 202 -64 200 C-62.68 200 -61.36 200 -60 200 C-60 193.4 -60 186.8 -60 180 C-58.02 180 -56.04 180 -54 180 C-54 170.1 -54 160.2 -54 150 C-55.98 150 -57.96 150 -60 150 C-60 140.1 -60 130.2 -60 120 C-50.1 120 -40.2 120 -30 120 C-30 110.1 -30 100.2 -30 90 C-39.9 90 -49.8 90 -60 90 C-60 80.1 -60 70.2 -60 60 C-50.1 60 -40.2 60 -30 60 C-30 50.1 -30 40.2 -30 30 C-20.1 30 -10.2 30 0 30 C0 20.1 0 10.2 0 0 Z " fill="#E5E5E5" transform="translate(180,30)"/>
<path d="M0 0 C27.72 0 55.44 0 84 0 C84 9.57 84 19.14 84 29 C56.28 29 28.56 29 0 29 C0 19.43 0 9.86 0 0 Z " fill="#050607" transform="translate(266,156)"/>
<path d="M0 0 C7.92 0 15.84 0 24 0 C24 9.9 24 19.8 24 30 C33.9 30 43.8 30 54 30 C54 39.9 54 49.8 54 60 C50.2875 60.020625 46.575 60.04125 42.75 60.0625 C41.6475293 60.071604 40.54505859 60.08070801 39.40917969 60.09008789 C26.24236566 60.12344612 13.19290325 59.47117512 0 59 C0 39.53 0 20.06 0 0 Z " fill="#FEFEFE" transform="translate(486,180)"/>
<path d="M0 0 C1.98 0 3.96 0 6 0 C6 25.41 6 50.82 6 77 C15.24 77 24.48 77 34 77 C34 86.57 34 96.14 34 106 C42.58 106 51.16 106 60 106 C60 110.62 60 115.24 60 120 C50.1 120 40.2 120 30 120 C30 110.1 30 100.2 30 90 C20.1 90 10.2 90 0 90 C0 80.1 0 70.2 0 60 C-9.9 60 -19.8 60 -30 60 C-30 50.1 -30 40.2 -30 30 C-20.1 30 -10.2 30 0 30 C0 20.1 0 10.2 0 0 Z " fill="#FEFEFE" transform="translate(120,240)"/>
<path d="M0 0 C9.9 0 19.8 0 30 0 C30 4.62 30 9.24 30 14 C39.24 14 48.48 14 58 14 C58 22.91 58 31.82 58 41 C67.57 41 77.14 41 87 41 C87 41.33 87 41.66 87 42 C78.09 42 69.18 42 60 42 C60 47.94 60 53.88 60 60 C50.1 60 40.2 60 30 60 C30 50.1 30 40.2 30 30 C20.1 30 10.2 30 0 30 C0 20.1 0 10.2 0 0 Z " fill="#E5E5E5" transform="translate(150,360)"/>
<path d="M0 0 C9.9 0 19.8 0 30 0 C30 9.9 30 19.8 30 30 C39.9 30 49.8 30 60 30 C60 41.55 60 53.1 60 65 C62.97 65 65.94 65 69 65 C69 65.33 69 65.66 69 66 C59.43 66 49.86 66 40 66 C40 55.44 40 44.88 40 34 C12.61 34 -14.78 34 -43 34 C-43 25.75 -43 17.5 -43 9 C-38.71 9 -34.42 9 -30 9 C-30 15.93 -30 22.86 -30 30 C-20.1 30 -10.2 30 0 30 C0 20.1 0 10.2 0 0 Z " fill="#FEFEFE" transform="translate(420,420)"/>
<path d="M0 0 C22.44 0 44.88 0 68 0 C68 10.56 68 21.12 68 32 C45.56 32 23.12 32 0 32 C0 21.44 0 10.88 0 0 Z " fill="#F8C79E" transform="translate(288,454)"/>
<path d="M0 0 C8.58 0 17.16 0 26 0 C26 26.07 26 52.14 26 79 C17.42 79 8.84 79 0 79 C0 52.93 0 26.86 0 0 Z " fill="#43302D" transform="translate(154,156)"/>
<path d="M0 0 C26.73 0 53.46 0 81 0 C81 7.59 81 15.18 81 23 C54.27 23 27.54 23 0 23 C0 15.41 0 7.82 0 0 Z " fill="#040607" transform="translate(351,186)"/>
<path d="M0 0 C5.61 0 11.22 0 17 0 C17 9.9 17 19.8 17 30 C7.1 30 -2.8 30 -13 30 C-13 39.9 -13 49.8 -13 60 C-22.9 60 -32.8 60 -43 60 C-43 53.07 -43 46.14 -43 39 C-47.29 39 -51.58 39 -56 39 C-56 38.67 -56 38.34 -56 38 C-47.75 38 -39.5 38 -31 38 C-31 29.75 -31 21.5 -31 13 C-20.77 13 -10.54 13 0 13 C0 8.71 0 4.42 0 0 Z " fill="#E5E5E5" transform="translate(433,390)"/>
<path d="M0 0 C1.32 0 2.64 0 4 0 C4 11.88 4 23.76 4 36 C-4.91 36 -13.82 36 -23 36 C-23 89.13 -23 142.26 -23 197 C-23.33 197 -23.66 197 -24 197 C-24 171.59 -24 146.18 -24 120 C-25.98 120 -27.96 120 -30 120 C-30 129.9 -30 139.8 -30 150 C-39.9 150 -49.8 150 -60 150 C-60 140.1 -60 130.2 -60 120 C-51.09 119.67 -42.18 119.34 -33 119 C-34.32 117.35 -35.64 115.7 -37 114 C-35.75 112 -35.75 112 -34 110 C-32.68 110 -31.36 110 -30 110 C-30 103.4 -30 96.8 -30 90 C-28.02 90 -26.04 90 -24 90 C-24 80.1 -24 70.2 -24 60 C-25.98 60 -27.96 60 -30 60 C-30 50.1 -30 40.2 -30 30 C-20.1 30 -10.2 30 0 30 C0 20.1 0 10.2 0 0 Z " fill="#E5E5E5" transform="translate(150,120)"/>
<path d="M0 0 C21.45 0 42.9 0 65 0 C65 8.91 65 17.82 65 27 C43.55 27 22.1 27 0 27 C0 18.09 0 9.18 0 0 Z " fill="#050708" transform="translate(293,346)"/>
<path d="M0 0 C9.24 0 18.48 0 28 0 C28 27.72 28 55.44 28 84 C19.09 84 10.18 84 1 84 C1 83.67 1 83.34 1 83 C9.58 83 18.16 83 27 83 C27 75.08 27 67.16 27 59 C18.09 59 9.18 59 0 59 C0 39.53 0 20.06 0 0 Z " fill="#ECBD97" transform="translate(458,264)"/>
<path d="M0 0 C13.365 0.495 13.365 0.495 27 1 C27 10.9 27 20.8 27 31 C18.42 31 9.84 31 1 31 C1 40.9 1 50.8 1 61 C9.58 61 18.16 61 27 61 C27 70.9 27 80.8 27 91 C17.1 91 7.2 91 -3 91 C-3 88.69 -3 86.38 -3 84 C-2.01 84 -1.02 84 0 84 C0 56.28 0 28.56 0 0 Z " fill="#DBDBDB" transform="translate(513,239)"/>
<path d="M0 0 C19.14 0 38.28 0 58 0 C58 9.24 58 18.48 58 28 C38.86 28 19.72 28 0 28 C0 18.76 0 9.52 0 0 Z " fill="#050708" transform="translate(208,127)"/>
<path d="M0 0 C8.58 0 17.16 0 26 0 C26 20.46 26 40.92 26 62 C17.42 62 8.84 62 0 62 C0 41.54 0 21.08 0 0 Z " fill="#0B0B0B" transform="translate(264,231)"/>
<path d="M0 0 C0.33 0 0.66 0 1 0 C1 8.58 1 17.16 1 26 C-26.06 26 -53.12 26 -81 26 C-81 36.56 -81 47.12 -81 58 C-90.57 58 -100.14 58 -110 58 C-110 85.72 -110 113.44 -110 142 C-110.99 142 -111.98 142 -113 142 C-113 132.1 -113 122.2 -113 112 C-117.62 112.33 -122.24 112.66 -127 113 C-125.515 113.99 -125.515 113.99 -124 115 C-125.32 115 -126.64 115 -128 115 C-128.66 114.34 -129.32 113.68 -130 113 C-134.29 112.67 -138.58 112.34 -143 112 C-143 102.1 -143 92.2 -143 82 C-133.1 82 -123.2 82 -113 82 C-113 72.1 -113 62.2 -113 52 C-103.1 52 -93.2 52 -83 52 C-83 42.1 -83 32.2 -83 22 C-73.1 22 -63.2 22 -53 22 C-53 22.99 -53 23.98 -53 25 C-35.51 25 -18.02 25 0 25 C0 16.75 0 8.5 0 0 Z " fill="#E4E4E4" transform="translate(263,428)"/>
<path d="M0 0 C8.25 0 16.5 0 25 0 C25 20.13 25 40.26 25 61 C16.75 61 8.5 61 0 61 C0 40.87 0 20.74 0 0 Z " fill="#040607" transform="translate(360,231)"/>
<path d="M0 0 C8.58 0 17.16 0 26 0 C26 17.82 26 35.64 26 54 C17.42 54 8.84 54 0 54 C0 36.18 0 18.36 0 0 Z " fill="#F6C59D" transform="translate(154,263)"/>
<path d="M0 0 C8.25 0 16.5 0 25 0 C25 17.16 25 34.32 25 52 C16.75 52 8.5 52 0 52 C0 34.84 0 17.68 0 0 Z " fill="#050708" transform="translate(155,104)"/>
<path d="M0 0 C0.33 0 0.66 0 1 0 C1 8.91 1 17.82 1 27 C10.57 27 20.14 27 30 27 C30 27.33 30 27.66 30 28 C21.09 28 12.18 28 3 28 C3 33.94 3 39.88 3 46 C-6.9 46 -16.8 46 -27 46 C-27 36.1 -27 26.2 -27 16 C-18.09 16 -9.18 16 0 16 C0 10.72 0 5.44 0 0 Z " fill="#E4E4E4" transform="translate(207,374)"/>
<path d="M0 0 C9.9 0 19.8 0 30 0 C30.33 3.3 30.66 6.6 31 10 C33.35999026 13.57183412 33.35999026 13.57183412 36 16 C32.125 14.125 32.125 14.125 31 13 C30.67 18.61 30.34 24.22 30 30 C28.02 30.33 26.04 30.66 24 31 C23.67 31.66 23.34 32.32 23 33 C22.34 32.34 21.68 31.68 21 31 C18.77341846 30.62995706 18.77341846 30.62995706 16.2109375 30.5859375 C15.36321777 30.55032715 14.51549805 30.5147168 13.64208984 30.47802734 C12.5639502 30.44402832 11.48581055 30.4100293 10.375 30.375 C6.95125 30.25125 3.5275 30.1275 0 30 C0 20.1 0 10.2 0 0 Z " fill="#E5E5E5" transform="translate(90,540)"/>
<path d="M0 0 C9.9 0 19.8 0 30 0 C30 5.28 30 10.56 30 16 C29.34 16 28.68 16 28 16 C28 25.57 28 35.14 28 45 C18.76 45 9.52 45 0 45 C0 44.67 0 44.34 0 44 C8.91 44 17.82 44 27 44 C27 39.38 27 34.76 27 30 C18.09 30 9.18 30 0 30 C0 20.1 0 10.2 0 0 Z " fill="#E2E2E2" transform="translate(180,30)"/>
<path d="M0 0 C9.9 0 19.8 0 30 0 C30 9.9 30 19.8 30 30 C26.37 30 22.74 30 19 30 C18.67 30.99 18.34 31.98 18 33 C18 32.01 18 31.02 18 30 C16.35 30.33 14.7 30.66 13 31 C8.71 30.67 4.42 30.34 0 30 C0 20.1 0 10.2 0 0 Z " fill="#E5E5E5" transform="translate(600,30)"/>
<path d="M0 0 C9.9 0 19.8 0 30 0 C30 9.9 30 19.8 30 30 C20.1 30 10.2 30 0 30 C0 20.1 0 10.2 0 0 Z " fill="#FFFFFF" transform="translate(600,600)"/>
<path d="M0 0 C9.9 0 19.8 0 30 0 C30 9.9 30 19.8 30 30 C20.1 30 10.2 30 0 30 C0 20.1 0 10.2 0 0 Z " fill="#E6E6E6" transform="translate(570,600)"/>
<path d="M0 0 C9.9 0 19.8 0 30 0 C30 9.9 30 19.8 30 30 C20.1 30 10.2 30 0 30 C0 20.1 0 10.2 0 0 Z " fill="#FFFFFF" transform="translate(540,600)"/>
<path d="M0 0 C9.9 0 19.8 0 30 0 C30 9.9 30 19.8 30 30 C20.1 30 10.2 30 0 30 C0 20.1 0 10.2 0 0 Z " fill="#E5E5E5" transform="translate(510,600)"/>
<path d="M0 0 C9.9 0 19.8 0 30 0 C30 9.9 30 19.8 30 30 C20.1 30 10.2 30 0 30 C0 20.1 0 10.2 0 0 Z " fill="#FFFFFF" transform="translate(480,600)"/>
<path d="M0 0 C9.9 0 19.8 0 30 0 C30 9.9 30 19.8 30 30 C20.1 30 10.2 30 0 30 C0 20.1 0 10.2 0 0 Z " fill="#FFFFFF" transform="translate(420,600)"/>
<path d="M0 0 C9.9 0 19.8 0 30 0 C30 9.9 30 19.8 30 30 C20.1 30 10.2 30 0 30 C0 20.1 0 10.2 0 0 Z " fill="#FFFFFF" transform="translate(360,600)"/>
<path d="M0 0 C9.9 0 19.8 0 30 0 C30 9.9 30 19.8 30 30 C20.1 30 10.2 30 0 30 C0 20.1 0 10.2 0 0 Z " fill="#FFFFFF" transform="translate(300,600)"/>
<path d="M0 0 C9.9 0 19.8 0 30 0 C30 9.9 30 19.8 30 30 C20.1 30 10.2 30 0 30 C0 20.1 0 10.2 0 0 Z " fill="#FFFFFF" transform="translate(240,600)"/>
<path d="M0 0 C9.9 0 19.8 0 30 0 C30 9.9 30 19.8 30 30 C20.1 30 10.2 30 0 30 C0 20.1 0 10.2 0 0 Z " fill="#E5E5E5" transform="translate(210,600)"/>
<path d="M0 0 C9.9 0 19.8 0 30 0 C30 9.9 30 19.8 30 30 C20.1 30 10.2 30 0 30 C0 20.1 0 10.2 0 0 Z " fill="#FEFEFE" transform="translate(180,600)"/>
<path d="M0 0 C9.9 0 19.8 0 30 0 C30 9.9 30 19.8 30 30 C20.1 30 10.2 30 0 30 C0 20.1 0 10.2 0 0 Z " fill="#E6E6E6" transform="translate(150,600)"/>
<path d="M0 0 C9.9 0 19.8 0 30 0 C30 9.9 30 19.8 30 30 C20.1 30 10.2 30 0 30 C0 20.1 0 10.2 0 0 Z " fill="#FFFFFF" transform="translate(120,600)"/>
<path d="M0 0 C9.9 0 19.8 0 30 0 C30 9.9 30 19.8 30 30 C20.1 30 10.2 30 0 30 C0 20.1 0 10.2 0 0 Z " fill="#E6E6E6" transform="translate(90,600)"/>
<path d="M0 0 C9.9 0 19.8 0 30 0 C30 9.9 30 19.8 30 30 C20.1 30 10.2 30 0 30 C0 20.1 0 10.2 0 0 Z " fill="#FFFFFF" transform="translate(60,600)"/>
<path d="M0 0 C9.9 0 19.8 0 30 0 C30 9.9 30 19.8 30 30 C20.1 30 10.2 30 0 30 C0 20.1 0 10.2 0 0 Z " fill="#E6E6E6" transform="translate(30,600)"/>
<path d="M0 0 C9.9 0 19.8 0 30 0 C30 9.9 30 19.8 30 30 C20.1 30 10.2 30 0 30 C0 20.1 0 10.2 0 0 Z " fill="#E6E6E6" transform="translate(600,570)"/>
<path d="M0 0 C9.9 0 19.8 0 30 0 C30 9.9 30 19.8 30 30 C20.1 30 10.2 30 0 30 C0 20.1 0 10.2 0 0 Z " fill="#FFFFFF" transform="translate(570,570)"/>
<path d="M0 0 C9.9 0 19.8 0 30 0 C30 9.9 30 19.8 30 30 C20.1 30 10.2 30 0 30 C0 20.1 0 10.2 0 0 Z " fill="#E6E6E6" transform="translate(540,570)"/>
<path d="M0 0 C9.9 0 19.8 0 30 0 C30 9.9 30 19.8 30 30 C20.1 30 10.2 30 0 30 C0 20.1 0 10.2 0 0 Z " fill="#FFFFFF" transform="translate(510,570)"/>
<path d="M0 0 C9.9 0 19.8 0 30 0 C30 9.9 30 19.8 30 30 C20.1 30 10.2 30 0 30 C0 20.1 0 10.2 0 0 Z " fill="#E6E6E6" transform="translate(60,570)"/>
<path d="M0 0 C9.9 0 19.8 0 30 0 C30 9.9 30 19.8 30 30 C20.1 30 10.2 30 0 30 C0 20.1 0 10.2 0 0 Z " fill="#FFFFFF" transform="translate(30,570)"/>
<path d="M0 0 C9.9 0 19.8 0 30 0 C30 9.9 30 19.8 30 30 C20.1 30 10.2 30 0 30 C0 20.1 0 10.2 0 0 Z " fill="#E6E6E6" transform="translate(0,570)"/>
<path d="M0 0 C9.9 0 19.8 0 30 0 C30 9.9 30 19.8 30 30 C20.1 30 10.2 30 0 30 C0 20.1 0 10.2 0 0 Z " fill="#FFFFFF" transform="translate(600,540)"/>
<path d="M0 0 C9.9 0 19.8 0 30 0 C30 9.9 30 19.8 30 30 C20.1 30 10.2 30 0 30 C0 20.1 0 10.2 0 0 Z " fill="#E6E6E6" transform="translate(570,540)"/>
<path d="M0 0 C9.9 0 19.8 0 30 0 C30 9.9 30 19.8 30 30 C20.1 30 10.2 30 0 30 C0 20.1 0 10.2 0 0 Z " fill="#FFFFFF" transform="translate(540,540)"/>
<path d="M0 0 C9.9 0 19.8 0 30 0 C30 9.9 30 19.8 30 30 C20.1 30 10.2 30 0 30 C0 20.1 0 10.2 0 0 Z " fill="#E6E6E6" transform="translate(510,540)"/>
<path d="M0 0 C9.9 0 19.8 0 30 0 C30 9.9 30 19.8 30 30 C20.1 30 10.2 30 0 30 C0 20.1 0 10.2 0 0 Z " fill="#FFFFFF" transform="translate(60,540)"/>
<path d="M0 0 C9.9 0 19.8 0 30 0 C30 9.9 30 19.8 30 30 C20.1 30 10.2 30 0 30 C0 20.1 0 10.2 0 0 Z " fill="#E6E6E6" transform="translate(30,540)"/>
<path d="M0 0 C9.9 0 19.8 0 30 0 C30 9.9 30 19.8 30 30 C20.1 30 10.2 30 0 30 C0 20.1 0 10.2 0 0 Z " fill="#FFFFFF" transform="translate(0,540)"/>
<path d="M0 0 C9.9 0 19.8 0 30 0 C30 9.9 30 19.8 30 30 C20.1 30 10.2 30 0 30 C0 20.1 0 10.2 0 0 Z " fill="#E6E6E6" transform="translate(600,510)"/>
<path d="M0 0 C9.9 0 19.8 0 30 0 C30 9.9 30 19.8 30 30 C20.1 30 10.2 30 0 30 C0 20.1 0 10.2 0 0 Z " fill="#FFFFFF" transform="translate(570,510)"/>
<path d="M0 0 C9.9 0 19.8 0 30 0 C30 9.9 30 19.8 30 30 C20.1 30 10.2 30 0 30 C0 20.1 0 10.2 0 0 Z " fill="#E6E6E6" transform="translate(540,510)"/>
<path d="M0 0 C9.9 0 19.8 0 30 0 C30 9.9 30 19.8 30 30 C20.1 30 10.2 30 0 30 C0 20.1 0 10.2 0 0 Z " fill="#FFFFFF" transform="translate(510,510)"/>
<path d="M0 0 C9.9 0 19.8 0 30 0 C30 9.9 30 19.8 30 30 C20.1 30 10.2 30 0 30 C0 20.1 0 10.2 0 0 Z " fill="#FFFFFF" transform="translate(90,510)"/>
<path d="M0 0 C9.9 0 19.8 0 30 0 C30 9.9 30 19.8 30 30 C20.1 30 10.2 30 0 30 C0 20.1 0 10.2 0 0 Z " fill="#E6E6E6" transform="translate(60,510)"/>
<path d="M0 0 C9.9 0 19.8 0 30 0 C30 9.9 30 19.8 30 30 C20.1 30 10.2 30 0 30 C0 20.1 0 10.2 0 0 Z " fill="#FFFFFF" transform="translate(30,510)"/>
<path d="M0 0 C9.9 0 19.8 0 30 0 C30 9.9 30 19.8 30 30 C20.1 30 10.2 30 0 30 C0 20.1 0 10.2 0 0 Z " fill="#E6E6E6" transform="translate(0,510)"/>
<path d="M0 0 C9.9 0 19.8 0 30 0 C30 9.9 30 19.8 30 30 C20.1 30 10.2 30 0 30 C0 20.1 0 10.2 0 0 Z " fill="#FFFFFF" transform="translate(600,480)"/>
<path d="M0 0 C9.9 0 19.8 0 30 0 C30 9.9 30 19.8 30 30 C20.1 30 10.2 30 0 30 C0 20.1 0 10.2 0 0 Z " fill="#E6E6E6" transform="translate(570,480)"/>
<path d="M0 0 C9.9 0 19.8 0 30 0 C30 9.9 30 19.8 30 30 C20.1 30 10.2 30 0 30 C0 20.1 0 10.2 0 0 Z " fill="#FFFFFF" transform="translate(540,480)"/>
<path d="M0 0 C9.9 0 19.8 0 30 0 C30 9.9 30 19.8 30 30 C20.1 30 10.2 30 0 30 C0 20.1 0 10.2 0 0 Z " fill="#E6E6E6" transform="translate(510,480)"/>
<path d="M0 0 C9.9 0 19.8 0 30 0 C30 9.9 30 19.8 30 30 C20.1 30 10.2 30 0 30 C0 20.1 0 10.2 0 0 Z " fill="#FFFFFF" transform="translate(120,480)"/>
<path d="M0 0 C9.9 0 19.8 0 30 0 C30 9.9 30 19.8 30 30 C20.1 30 10.2 30 0 30 C0 20.1 0 10.2 0 0 Z " fill="#E6E6E6" transform="translate(90,480)"/>
<path d="M0 0 C9.9 0 19.8 0 30 0 C30 9.9 30 19.8 30 30 C20.1 30 10.2 30 0 30 C0 20.1 0 10.2 0 0 Z " fill="#FFFFFF" transform="translate(60,480)"/>
<path d="M0 0 C9.9 0 19.8 0 30 0 C30 9.9 30 19.8 30 30 C20.1 30 10.2 30 0 30 C0 20.1 0 10.2 0 0 Z " fill="#E6E6E6" transform="translate(30,480)"/>
<path d="M0 0 C9.9 0 19.8 0 30 0 C30 9.9 30 19.8 30 30 C20.1 30 10.2 30 0 30 C0 20.1 0 10.2 0 0 Z " fill="#FFFFFF" transform="translate(0,480)"/>
<path d="M0 0 C9.9 0 19.8 0 30 0 C30 9.9 30 19.8 30 30 C20.1 30 10.2 30 0 30 C0 20.1 0 10.2 0 0 Z " fill="#E6E6E6" transform="translate(600,450)"/>
<path d="M0 0 C9.9 0 19.8 0 30 0 C30 9.9 30 19.8 30 30 C20.1 30 10.2 30 0 30 C0 20.1 0 10.2 0 0 Z " fill="#FFFFFF" transform="translate(570,450)"/>
<path d="M0 0 C9.9 0 19.8 0 30 0 C30 9.9 30 19.8 30 30 C20.1 30 10.2 30 0 30 C0 20.1 0 10.2 0 0 Z " fill="#E6E6E6" transform="translate(540,450)"/>
<path d="M0 0 C9.9 0 19.8 0 30 0 C30 9.9 30 19.8 30 30 C20.1 30 10.2 30 0 30 C0 20.1 0 10.2 0 0 Z " fill="#FFFFFF" transform="translate(510,450)"/>
<path d="M0 0 C9.9 0 19.8 0 30 0 C30 9.9 30 19.8 30 30 C20.1 30 10.2 30 0 30 C0 20.1 0 10.2 0 0 Z " fill="#E6E6E6" transform="translate(480,450)"/>
<path d="M0 0 C9.9 0 19.8 0 30 0 C30 9.9 30 19.8 30 30 C20.1 30 10.2 30 0 30 C0 20.1 0 10.2 0 0 Z " fill="#FFFFFF" transform="translate(150,450)"/>
<path d="M0 0 C9.9 0 19.8 0 30 0 C30 9.9 30 19.8 30 30 C20.1 30 10.2 30 0 30 C0 20.1 0 10.2 0 0 Z " fill="#E6E6E6" transform="translate(120,450)"/>
<path d="M0 0 C9.9 0 19.8 0 30 0 C30 9.9 30 19.8 30 30 C20.1 30 10.2 30 0 30 C0 20.1 0 10.2 0 0 Z " fill="#FFFFFF" transform="translate(90,450)"/>
<path d="M0 0 C9.9 0 19.8 0 30 0 C30 9.9 30 19.8 30 30 C20.1 30 10.2 30 0 30 C0 20.1 0 10.2 0 0 Z " fill="#E5E5E5" transform="translate(60,450)"/>
<path d="M0 0 C9.9 0 19.8 0 30 0 C30 9.9 30 19.8 30 30 C20.1 30 10.2 30 0 30 C0 20.1 0 10.2 0 0 Z " fill="#FEFEFE" transform="translate(30,450)"/>
<path d="M0 0 C9.9 0 19.8 0 30 0 C30 9.9 30 19.8 30 30 C20.1 30 10.2 30 0 30 C0 20.1 0 10.2 0 0 Z " fill="#E6E6E6" transform="translate(0,450)"/>
<path d="M0 0 C9.9 0 19.8 0 30 0 C30 9.9 30 19.8 30 30 C20.1 30 10.2 30 0 30 C0 20.1 0 10.2 0 0 Z " fill="#FFFFFF" transform="translate(600,420)"/>
<path d="M0 0 C9.9 0 19.8 0 30 0 C30 9.9 30 19.8 30 30 C20.1 30 10.2 30 0 30 C0 20.1 0 10.2 0 0 Z " fill="#FFFFFF" transform="translate(540,420)"/>
<path d="M0 0 C9.9 0 19.8 0 30 0 C30 9.9 30 19.8 30 30 C20.1 30 10.2 30 0 30 C0 20.1 0 10.2 0 0 Z " fill="#E6E6E6" transform="translate(510,420)"/>
<path d="M0 0 C9.9 0 19.8 0 30 0 C30 9.9 30 19.8 30 30 C20.1 30 10.2 30 0 30 C0 20.1 0 10.2 0 0 Z " fill="#FFFFFF" transform="translate(480,420)"/>
<path d="M0 0 C9.9 0 19.8 0 30 0 C30 9.9 30 19.8 30 30 C20.1 30 10.2 30 0 30 C0 20.1 0 10.2 0 0 Z " fill="#E6E6E6" transform="translate(450,420)"/>
<path d="M0 0 C9.9 0 19.8 0 30 0 C30 9.9 30 19.8 30 30 C20.1 30 10.2 30 0 30 C0 20.1 0 10.2 0 0 Z " fill="#FFFFFF" transform="translate(420,420)"/>
<path d="M0 0 C9.9 0 19.8 0 30 0 C30 9.9 30 19.8 30 30 C20.1 30 10.2 30 0 30 C0 20.1 0 10.2 0 0 Z " fill="#FFFFFF" transform="translate(180,420)"/>
<path d="M0 0 C9.9 0 19.8 0 30 0 C30 9.9 30 19.8 30 30 C20.1 30 10.2 30 0 30 C0 20.1 0 10.2 0 0 Z " fill="#E6E6E6" transform="translate(150,420)"/>
<path d="M0 0 C9.9 0 19.8 0 30 0 C30 9.9 30 19.8 30 30 C20.1 30 10.2 30 0 30 C0 20.1 0 10.2 0 0 Z " fill="#FFFFFF" transform="translate(120,420)"/>
<path d="M0 0 C9.9 0 19.8 0 30 0 C30 9.9 30 19.8 30 30 C20.1 30 10.2 30 0 30 C0 20.1 0 10.2 0 0 Z " fill="#E6E6E6" transform="translate(90,420)"/>
<path d="M0 0 C9.9 0 19.8 0 30 0 C30 9.9 30 19.8 30 30 C20.1 30 10.2 30 0 30 C0 20.1 0 10.2 0 0 Z " fill="#FFFFFF" transform="translate(60,420)"/>
<path d="M0 0 C9.9 0 19.8 0 30 0 C30 9.9 30 19.8 30 30 C20.1 30 10.2 30 0 30 C0 20.1 0 10.2 0 0 Z " fill="#E6E6E6" transform="translate(30,420)"/>
<path d="M0 0 C9.9 0 19.8 0 30 0 C30 9.9 30 19.8 30 30 C20.1 30 10.2 30 0 30 C0 20.1 0 10.2 0 0 Z " fill="#FFFFFF" transform="translate(0,420)"/>
<path d="M0 0 C9.9 0 19.8 0 30 0 C30 9.9 30 19.8 30 30 C20.1 30 10.2 30 0 30 C0 20.1 0 10.2 0 0 Z " fill="#E5E5E5" transform="translate(600,390)"/>
<path d="M0 0 C9.9 0 19.8 0 30 0 C30 9.9 30 19.8 30 30 C20.1 30 10.2 30 0 30 C0 20.1 0 10.2 0 0 Z " fill="#E6E6E6" transform="translate(540,390)"/>
<path d="M0 0 C9.9 0 19.8 0 30 0 C30 9.9 30 19.8 30 30 C20.1 30 10.2 30 0 30 C0 20.1 0 10.2 0 0 Z " fill="#FFFFFF" transform="translate(510,390)"/>
<path d="M0 0 C9.9 0 19.8 0 30 0 C30 9.9 30 19.8 30 30 C20.1 30 10.2 30 0 30 C0 20.1 0 10.2 0 0 Z " fill="#E6E6E6" transform="translate(480,390)"/>
<path d="M0 0 C9.9 0 19.8 0 30 0 C30 9.9 30 19.8 30 30 C20.1 30 10.2 30 0 30 C0 20.1 0 10.2 0 0 Z " fill="#FFFFFF" transform="translate(450,390)"/>
<path d="M0 0 C9.9 0 19.8 0 30 0 C30 9.9 30 19.8 30 30 C20.1 30 10.2 30 0 30 C0 20.1 0 10.2 0 0 Z " fill="#FFFFFF" transform="translate(150,390)"/>
<path d="M0 0 C9.9 0 19.8 0 30 0 C30 9.9 30 19.8 30 30 C20.1 30 10.2 30 0 30 C0 20.1 0 10.2 0 0 Z " fill="#E6E6E6" transform="translate(120,390)"/>
<path d="M0 0 C9.9 0 19.8 0 30 0 C30 9.9 30 19.8 30 30 C20.1 30 10.2 30 0 30 C0 20.1 0 10.2 0 0 Z " fill="#FFFFFF" transform="translate(90,390)"/>
<path d="M0 0 C9.9 0 19.8 0 30 0 C30 9.9 30 19.8 30 30 C20.1 30 10.2 30 0 30 C0 20.1 0 10.2 0 0 Z " fill="#E6E6E6" transform="translate(60,390)"/>
<path d="M0 0 C9.9 0 19.8 0 30 0 C30 9.9 30 19.8 30 30 C20.1 30 10.2 30 0 30 C0 20.1 0 10.2 0 0 Z " fill="#FFFFFF" transform="translate(30,390)"/>
<path d="M0 0 C9.9 0 19.8 0 30 0 C30 9.9 30 19.8 30 30 C20.1 30 10.2 30 0 30 C0 20.1 0 10.2 0 0 Z " fill="#E6E6E6" transform="translate(0,390)"/>
<path d="M0 0 C9.9 0 19.8 0 30 0 C30 9.9 30 19.8 30 30 C20.1 30 10.2 30 0 30 C0 20.1 0 10.2 0 0 Z " fill="#FEFEFE" transform="translate(600,360)"/>
<path d="M0 0 C9.9 0 19.8 0 30 0 C30 9.9 30 19.8 30 30 C20.1 30 10.2 30 0 30 C0 20.1 0 10.2 0 0 Z " fill="#FFFFFF" transform="translate(540,360)"/>
<path d="M0 0 C9.9 0 19.8 0 30 0 C30 9.9 30 19.8 30 30 C20.1 30 10.2 30 0 30 C0 20.1 0 10.2 0 0 Z " fill="#E6E6E6" transform="translate(510,360)"/>
<path d="M0 0 C9.9 0 19.8 0 30 0 C30 9.9 30 19.8 30 30 C20.1 30 10.2 30 0 30 C0 20.1 0 10.2 0 0 Z " fill="#FFFFFF" transform="translate(480,360)"/>
<path d="M0 0 C9.9 0 19.8 0 30 0 C30 9.9 30 19.8 30 30 C20.1 30 10.2 30 0 30 C0 20.1 0 10.2 0 0 Z " fill="#FFFFFF" transform="translate(120,360)"/>
<path d="M0 0 C9.9 0 19.8 0 30 0 C30 9.9 30 19.8 30 30 C20.1 30 10.2 30 0 30 C0 20.1 0 10.2 0 0 Z " fill="#E6E6E6" transform="translate(90,360)"/>
<path d="M0 0 C9.9 0 19.8 0 30 0 C30 9.9 30 19.8 30 30 C20.1 30 10.2 30 0 30 C0 20.1 0 10.2 0 0 Z " fill="#FFFFFF" transform="translate(60,360)"/>
<path d="M0 0 C9.9 0 19.8 0 30 0 C30 9.9 30 19.8 30 30 C20.1 30 10.2 30 0 30 C0 20.1 0 10.2 0 0 Z " fill="#E6E6E6" transform="translate(30,360)"/>
<path d="M0 0 C9.9 0 19.8 0 30 0 C30 9.9 30 19.8 30 30 C20.1 30 10.2 30 0 30 C0 20.1 0 10.2 0 0 Z " fill="#FFFFFF" transform="translate(0,360)"/>
<path d="M0 0 C9.9 0 19.8 0 30 0 C30 9.9 30 19.8 30 30 C20.1 30 10.2 30 0 30 C0 20.1 0 10.2 0 0 Z " fill="#E6E6E6" transform="translate(600,330)"/>
<path d="M0 0 C9.9 0 19.8 0 30 0 C30 9.9 30 19.8 30 30 C20.1 30 10.2 30 0 30 C0 20.1 0 10.2 0 0 Z " fill="#FFFFFF" transform="translate(570,330)"/>
<path d="M0 0 C9.9 0 19.8 0 30 0 C30 9.9 30 19.8 30 30 C20.1 30 10.2 30 0 30 C0 20.1 0 10.2 0 0 Z " fill="#E6E6E6" transform="translate(540,330)"/>
<path d="M0 0 C9.9 0 19.8 0 30 0 C30 9.9 30 19.8 30 30 C20.1 30 10.2 30 0 30 C0 20.1 0 10.2 0 0 Z " fill="#FFFFFF" transform="translate(510,330)"/>
<path d="M0 0 C9.9 0 19.8 0 30 0 C30 9.9 30 19.8 30 30 C20.1 30 10.2 30 0 30 C0 20.1 0 10.2 0 0 Z " fill="#E6E6E6" transform="translate(120,330)"/>
<path d="M0 0 C9.9 0 19.8 0 30 0 C30 9.9 30 19.8 30 30 C20.1 30 10.2 30 0 30 C0 20.1 0 10.2 0 0 Z " fill="#FFFFFF" transform="translate(90,330)"/>
<path d="M0 0 C9.9 0 19.8 0 30 0 C30 9.9 30 19.8 30 30 C20.1 30 10.2 30 0 30 C0 20.1 0 10.2 0 0 Z " fill="#E6E6E6" transform="translate(60,330)"/>
<path d="M0 0 C9.9 0 19.8 0 30 0 C30 9.9 30 19.8 30 30 C20.1 30 10.2 30 0 30 C0 20.1 0 10.2 0 0 Z " fill="#FFFFFF" transform="translate(30,330)"/>
<path d="M0 0 C9.9 0 19.8 0 30 0 C30 9.9 30 19.8 30 30 C20.1 30 10.2 30 0 30 C0 20.1 0 10.2 0 0 Z " fill="#E6E6E6" transform="translate(0,330)"/>
<path d="M0 0 C9.9 0 19.8 0 30 0 C30 9.9 30 19.8 30 30 C20.1 30 10.2 30 0 30 C0 20.1 0 10.2 0 0 Z " fill="#FFFFFF" transform="translate(600,300)"/>
<path d="M0 0 C9.9 0 19.8 0 30 0 C30 9.9 30 19.8 30 30 C20.1 30 10.2 30 0 30 C0 20.1 0 10.2 0 0 Z " fill="#E6E6E6" transform="translate(570,300)"/>
<path d="M0 0 C9.9 0 19.8 0 30 0 C30 9.9 30 19.8 30 30 C20.1 30 10.2 30 0 30 C0 20.1 0 10.2 0 0 Z " fill="#FFFFFF" transform="translate(540,300)"/>
<path d="M0 0 C9.9 0 19.8 0 30 0 C30 9.9 30 19.8 30 30 C20.1 30 10.2 30 0 30 C0 20.1 0 10.2 0 0 Z " fill="#E6E6E6" transform="translate(90,300)"/>
<path d="M0 0 C9.9 0 19.8 0 30 0 C30 9.9 30 19.8 30 30 C20.1 30 10.2 30 0 30 C0 20.1 0 10.2 0 0 Z " fill="#FFFFFF" transform="translate(60,300)"/>
<path d="M0 0 C9.9 0 19.8 0 30 0 C30 9.9 30 19.8 30 30 C20.1 30 10.2 30 0 30 C0 20.1 0 10.2 0 0 Z " fill="#E6E6E6" transform="translate(30,300)"/>
<path d="M0 0 C9.9 0 19.8 0 30 0 C30 9.9 30 19.8 30 30 C20.1 30 10.2 30 0 30 C0 20.1 0 10.2 0 0 Z " fill="#FFFFFF" transform="translate(0,300)"/>
<path d="M0 0 C9.9 0 19.8 0 30 0 C30 9.9 30 19.8 30 30 C20.1 30 10.2 30 0 30 C0 20.1 0 10.2 0 0 Z " fill="#E6E6E6" transform="translate(600,270)"/>
<path d="M0 0 C9.9 0 19.8 0 30 0 C30 9.9 30 19.8 30 30 C20.1 30 10.2 30 0 30 C0 20.1 0 10.2 0 0 Z " fill="#FFFFFF" transform="translate(570,270)"/>
<path d="M0 0 C9.9 0 19.8 0 30 0 C30 9.9 30 19.8 30 30 C20.1 30 10.2 30 0 30 C0 20.1 0 10.2 0 0 Z " fill="#FFFFFF" transform="translate(90,270)"/>
<path d="M0 0 C9.9 0 19.8 0 30 0 C30 9.9 30 19.8 30 30 C20.1 30 10.2 30 0 30 C0 20.1 0 10.2 0 0 Z " fill="#E6E6E6" transform="translate(60,270)"/>
<path d="M0 0 C9.9 0 19.8 0 30 0 C30 9.9 30 19.8 30 30 C20.1 30 10.2 30 0 30 C0 20.1 0 10.2 0 0 Z " fill="#FFFFFF" transform="translate(30,270)"/>
<path d="M0 0 C9.9 0 19.8 0 30 0 C30 9.9 30 19.8 30 30 C20.1 30 10.2 30 0 30 C0 20.1 0 10.2 0 0 Z " fill="#E6E6E6" transform="translate(0,270)"/>
<path d="M0 0 C9.9 0 19.8 0 30 0 C30 9.9 30 19.8 30 30 C20.1 30 10.2 30 0 30 C0 20.1 0 10.2 0 0 Z " fill="#FFFFFF" transform="translate(600,240)"/>
<path d="M0 0 C9.9 0 19.8 0 30 0 C30 9.9 30 19.8 30 30 C20.1 30 10.2 30 0 30 C0 20.1 0 10.2 0 0 Z " fill="#E6E6E6" transform="translate(570,240)"/>
<path d="M0 0 C9.9 0 19.8 0 30 0 C30 9.9 30 19.8 30 30 C20.1 30 10.2 30 0 30 C0 20.1 0 10.2 0 0 Z " fill="#FFFFFF" transform="translate(540,240)"/>
<path d="M0 0 C9.9 0 19.8 0 30 0 C30 9.9 30 19.8 30 30 C20.1 30 10.2 30 0 30 C0 20.1 0 10.2 0 0 Z " fill="#FFFFFF" transform="translate(60,240)"/>
<path d="M0 0 C9.9 0 19.8 0 30 0 C30 9.9 30 19.8 30 30 C20.1 30 10.2 30 0 30 C0 20.1 0 10.2 0 0 Z " fill="#E6E6E6" transform="translate(30,240)"/>
<path d="M0 0 C9.9 0 19.8 0 30 0 C30 9.9 30 19.8 30 30 C20.1 30 10.2 30 0 30 C0 20.1 0 10.2 0 0 Z " fill="#FFFFFF" transform="translate(0,240)"/>
<path d="M0 0 C9.9 0 19.8 0 30 0 C30 9.9 30 19.8 30 30 C20.1 30 10.2 30 0 30 C0 20.1 0 10.2 0 0 Z " fill="#E6E6E6" transform="translate(600,210)"/>
<path d="M0 0 C9.9 0 19.8 0 30 0 C30 9.9 30 19.8 30 30 C20.1 30 10.2 30 0 30 C0 20.1 0 10.2 0 0 Z " fill="#FFFFFF" transform="translate(570,210)"/>
<path d="M0 0 C9.9 0 19.8 0 30 0 C30 9.9 30 19.8 30 30 C20.1 30 10.2 30 0 30 C0 20.1 0 10.2 0 0 Z " fill="#E6E6E6" transform="translate(540,210)"/>
<path d="M0 0 C9.9 0 19.8 0 30 0 C30 9.9 30 19.8 30 30 C20.1 30 10.2 30 0 30 C0 20.1 0 10.2 0 0 Z " fill="#E6E6E6" transform="translate(60,210)"/>
<path d="M0 0 C9.9 0 19.8 0 30 0 C30 9.9 30 19.8 30 30 C20.1 30 10.2 30 0 30 C0 20.1 0 10.2 0 0 Z " fill="#FFFFFF" transform="translate(30,210)"/>
<path d="M0 0 C9.9 0 19.8 0 30 0 C30 9.9 30 19.8 30 30 C20.1 30 10.2 30 0 30 C0 20.1 0 10.2 0 0 Z " fill="#E6E6E6" transform="translate(0,210)"/>
<path d="M0 0 C9.9 0 19.8 0 30 0 C30 9.9 30 19.8 30 30 C20.1 30 10.2 30 0 30 C0 20.1 0 10.2 0 0 Z " fill="#FFFFFF" transform="translate(600,180)"/>
<path d="M0 0 C9.9 0 19.8 0 30 0 C30 9.9 30 19.8 30 30 C20.1 30 10.2 30 0 30 C0 20.1 0 10.2 0 0 Z " fill="#E6E6E6" transform="translate(570,180)"/>
<path d="M0 0 C9.9 0 19.8 0 30 0 C30 9.9 30 19.8 30 30 C20.1 30 10.2 30 0 30 C0 20.1 0 10.2 0 0 Z " fill="#FFFFFF" transform="translate(540,180)"/>
<path d="M0 0 C9.9 0 19.8 0 30 0 C30 9.9 30 19.8 30 30 C20.1 30 10.2 30 0 30 C0 20.1 0 10.2 0 0 Z " fill="#E6E6E6" transform="translate(510,180)"/>
<path d="M0 0 C9.9 0 19.8 0 30 0 C30 9.9 30 19.8 30 30 C20.1 30 10.2 30 0 30 C0 20.1 0 10.2 0 0 Z " fill="#FFFFFF" transform="translate(60,180)"/>
<path d="M0 0 C9.9 0 19.8 0 30 0 C30 9.9 30 19.8 30 30 C20.1 30 10.2 30 0 30 C0 20.1 0 10.2 0 0 Z " fill="#E6E6E6" transform="translate(30,180)"/>
<path d="M0 0 C9.9 0 19.8 0 30 0 C30 9.9 30 19.8 30 30 C20.1 30 10.2 30 0 30 C0 20.1 0 10.2 0 0 Z " fill="#FFFFFF" transform="translate(0,180)"/>
<path d="M0 0 C9.9 0 19.8 0 30 0 C30 9.9 30 19.8 30 30 C20.1 30 10.2 30 0 30 C0 20.1 0 10.2 0 0 Z " fill="#E6E6E6" transform="translate(600,150)"/>
<path d="M0 0 C9.9 0 19.8 0 30 0 C30 9.9 30 19.8 30 30 C20.1 30 10.2 30 0 30 C0 20.1 0 10.2 0 0 Z " fill="#FFFFFF" transform="translate(570,150)"/>
<path d="M0 0 C9.9 0 19.8 0 30 0 C30 9.9 30 19.8 30 30 C20.1 30 10.2 30 0 30 C0 20.1 0 10.2 0 0 Z " fill="#E6E6E6" transform="translate(540,150)"/>
<path d="M0 0 C9.9 0 19.8 0 30 0 C30 9.9 30 19.8 30 30 C20.1 30 10.2 30 0 30 C0 20.1 0 10.2 0 0 Z " fill="#FFFFFF" transform="translate(510,150)"/>
<path d="M0 0 C9.9 0 19.8 0 30 0 C30 9.9 30 19.8 30 30 C20.1 30 10.2 30 0 30 C0 20.1 0 10.2 0 0 Z " fill="#FFFFFF" transform="translate(90,150)"/>
<path d="M0 0 C9.9 0 19.8 0 30 0 C30 9.9 30 19.8 30 30 C20.1 30 10.2 30 0 30 C0 20.1 0 10.2 0 0 Z " fill="#E5E5E5" transform="translate(60,150)"/>
<path d="M0 0 C9.9 0 19.8 0 30 0 C30 9.9 30 19.8 30 30 C20.1 30 10.2 30 0 30 C0 20.1 0 10.2 0 0 Z " fill="#FEFEFE" transform="translate(30,150)"/>
<path d="M0 0 C9.9 0 19.8 0 30 0 C30 9.9 30 19.8 30 30 C20.1 30 10.2 30 0 30 C0 20.1 0 10.2 0 0 Z " fill="#E6E6E6" transform="translate(0,150)"/>
<path d="M0 0 C9.9 0 19.8 0 30 0 C30 9.9 30 19.8 30 30 C20.1 30 10.2 30 0 30 C0 20.1 0 10.2 0 0 Z " fill="#FFFFFF" transform="translate(600,120)"/>
<path d="M0 0 C9.9 0 19.8 0 30 0 C30 9.9 30 19.8 30 30 C20.1 30 10.2 30 0 30 C0 20.1 0 10.2 0 0 Z " fill="#E6E6E6" transform="translate(570,120)"/>
<path d="M0 0 C9.9 0 19.8 0 30 0 C30 9.9 30 19.8 30 30 C20.1 30 10.2 30 0 30 C0 20.1 0 10.2 0 0 Z " fill="#FFFFFF" transform="translate(540,120)"/>
<path d="M0 0 C9.9 0 19.8 0 30 0 C30 9.9 30 19.8 30 30 C20.1 30 10.2 30 0 30 C0 20.1 0 10.2 0 0 Z " fill="#FFFFFF" transform="translate(120,120)"/>
<path d="M0 0 C9.9 0 19.8 0 30 0 C30 9.9 30 19.8 30 30 C20.1 30 10.2 30 0 30 C0 20.1 0 10.2 0 0 Z " fill="#E6E6E6" transform="translate(90,120)"/>
<path d="M0 0 C9.9 0 19.8 0 30 0 C30 9.9 30 19.8 30 30 C20.1 30 10.2 30 0 30 C0 20.1 0 10.2 0 0 Z " fill="#FEFEFE" transform="translate(60,120)"/>
<path d="M0 0 C9.9 0 19.8 0 30 0 C30 9.9 30 19.8 30 30 C20.1 30 10.2 30 0 30 C0 20.1 0 10.2 0 0 Z " fill="#E5E5E5" transform="translate(30,120)"/>
<path d="M0 0 C9.9 0 19.8 0 30 0 C30 9.9 30 19.8 30 30 C20.1 30 10.2 30 0 30 C0 20.1 0 10.2 0 0 Z " fill="#FFFFFF" transform="translate(0,120)"/>
<path d="M0 0 C9.9 0 19.8 0 30 0 C30 9.9 30 19.8 30 30 C20.1 30 10.2 30 0 30 C0 20.1 0 10.2 0 0 Z " fill="#E6E6E6" transform="translate(600,90)"/>
<path d="M0 0 C9.9 0 19.8 0 30 0 C30 9.9 30 19.8 30 30 C20.1 30 10.2 30 0 30 C0 20.1 0 10.2 0 0 Z " fill="#E6E6E6" transform="translate(540,90)"/>
<path d="M0 0 C9.9 0 19.8 0 30 0 C30 9.9 30 19.8 30 30 C20.1 30 10.2 30 0 30 C0 20.1 0 10.2 0 0 Z " fill="#FFFFFF" transform="translate(510,90)"/>
<path d="M0 0 C9.9 0 19.8 0 30 0 C30 9.9 30 19.8 30 30 C20.1 30 10.2 30 0 30 C0 20.1 0 10.2 0 0 Z " fill="#E6E6E6" transform="translate(120,90)"/>
<path d="M0 0 C9.9 0 19.8 0 30 0 C30 9.9 30 19.8 30 30 C20.1 30 10.2 30 0 30 C0 20.1 0 10.2 0 0 Z " fill="#FFFFFF" transform="translate(90,90)"/>
<path d="M0 0 C9.9 0 19.8 0 30 0 C30 9.9 30 19.8 30 30 C20.1 30 10.2 30 0 30 C0 20.1 0 10.2 0 0 Z " fill="#E6E6E6" transform="translate(60,90)"/>
<path d="M0 0 C9.9 0 19.8 0 30 0 C30 9.9 30 19.8 30 30 C20.1 30 10.2 30 0 30 C0 20.1 0 10.2 0 0 Z " fill="#FFFFFF" transform="translate(30,90)"/>
<path d="M0 0 C9.9 0 19.8 0 30 0 C30 9.9 30 19.8 30 30 C20.1 30 10.2 30 0 30 C0 20.1 0 10.2 0 0 Z " fill="#E6E6E6" transform="translate(0,90)"/>
<path d="M0 0 C9.9 0 19.8 0 30 0 C30 9.9 30 19.8 30 30 C20.1 30 10.2 30 0 30 C0 20.1 0 10.2 0 0 Z " fill="#FFFFFF" transform="translate(540,60)"/>
<path d="M0 0 C9.9 0 19.8 0 30 0 C30 9.9 30 19.8 30 30 C20.1 30 10.2 30 0 30 C0 20.1 0 10.2 0 0 Z " fill="#E6E6E6" transform="translate(510,60)"/>
<path d="M0 0 C9.9 0 19.8 0 30 0 C30 9.9 30 19.8 30 30 C20.1 30 10.2 30 0 30 C0 20.1 0 10.2 0 0 Z " fill="#FFFFFF" transform="translate(480,60)"/>
<path d="M0 0 C9.9 0 19.8 0 30 0 C30 9.9 30 19.8 30 30 C20.1 30 10.2 30 0 30 C0 20.1 0 10.2 0 0 Z " fill="#FFFFFF" transform="translate(120,60)"/>
<path d="M0 0 C9.9 0 19.8 0 30 0 C30 9.9 30 19.8 30 30 C20.1 30 10.2 30 0 30 C0 20.1 0 10.2 0 0 Z " fill="#E6E6E6" transform="translate(90,60)"/>
<path d="M0 0 C9.9 0 19.8 0 30 0 C30 9.9 30 19.8 30 30 C20.1 30 10.2 30 0 30 C0 20.1 0 10.2 0 0 Z " fill="#FFFFFF" transform="translate(60,60)"/>
<path d="M0 0 C9.9 0 19.8 0 30 0 C30 9.9 30 19.8 30 30 C20.1 30 10.2 30 0 30 C0 20.1 0 10.2 0 0 Z " fill="#E6E6E6" transform="translate(30,60)"/>
<path d="M0 0 C9.9 0 19.8 0 30 0 C30 9.9 30 19.8 30 30 C20.1 30 10.2 30 0 30 C0 20.1 0 10.2 0 0 Z " fill="#FFFFFF" transform="translate(0,60)"/>
<path d="M0 0 C9.9 0 19.8 0 30 0 C30 9.9 30 19.8 30 30 C20.1 30 10.2 30 0 30 C0 20.1 0 10.2 0 0 Z " fill="#FFFFFF" transform="translate(570,30)"/>
<path d="M0 0 C9.9 0 19.8 0 30 0 C30 9.9 30 19.8 30 30 C20.1 30 10.2 30 0 30 C0 20.1 0 10.2 0 0 Z " fill="#E6E6E6" transform="translate(540,30)"/>
<path d="M0 0 C9.9 0 19.8 0 30 0 C30 9.9 30 19.8 30 30 C20.1 30 10.2 30 0 30 C0 20.1 0 10.2 0 0 Z " fill="#FFFFFF" transform="translate(510,30)"/>
<path d="M0 0 C9.9 0 19.8 0 30 0 C30 9.9 30 19.8 30 30 C20.1 30 10.2 30 0 30 C0 20.1 0 10.2 0 0 Z " fill="#E6E6E6" transform="translate(480,30)"/>
<path d="M0 0 C9.9 0 19.8 0 30 0 C30 9.9 30 19.8 30 30 C20.1 30 10.2 30 0 30 C0 20.1 0 10.2 0 0 Z " fill="#FFFFFF" transform="translate(450,30)"/>
<path d="M0 0 C9.9 0 19.8 0 30 0 C30 9.9 30 19.8 30 30 C20.1 30 10.2 30 0 30 C0 20.1 0 10.2 0 0 Z " fill="#FFFFFF" transform="translate(150,30)"/>
<path d="M0 0 C9.9 0 19.8 0 30 0 C30 9.9 30 19.8 30 30 C20.1 30 10.2 30 0 30 C0 20.1 0 10.2 0 0 Z " fill="#E6E6E6" transform="translate(120,30)"/>
<path d="M0 0 C9.9 0 19.8 0 30 0 C30 9.9 30 19.8 30 30 C20.1 30 10.2 30 0 30 C0 20.1 0 10.2 0 0 Z " fill="#FFFFFF" transform="translate(90,30)"/>
<path d="M0 0 C9.9 0 19.8 0 30 0 C30 9.9 30 19.8 30 30 C20.1 30 10.2 30 0 30 C0 20.1 0 10.2 0 0 Z " fill="#E6E6E6" transform="translate(60,30)"/>
<path d="M0 0 C9.9 0 19.8 0 30 0 C30 9.9 30 19.8 30 30 C20.1 30 10.2 30 0 30 C0 20.1 0 10.2 0 0 Z " fill="#FFFFFF" transform="translate(30,30)"/>
<path d="M0 0 C9.9 0 19.8 0 30 0 C30 9.9 30 19.8 30 30 C20.1 30 10.2 30 0 30 C0 20.1 0 10.2 0 0 Z " fill="#E6E6E6" transform="translate(0,30)"/>
<path d="M0 0 C9.9 0 19.8 0 30 0 C30 9.9 30 19.8 30 30 C20.1 30 10.2 30 0 30 C0 20.1 0 10.2 0 0 Z " fill="#E6E6E6" transform="translate(570,0)"/>
<path d="M0 0 C9.9 0 19.8 0 30 0 C30 9.9 30 19.8 30 30 C20.1 30 10.2 30 0 30 C0 20.1 0 10.2 0 0 Z " fill="#FFFFFF" transform="translate(540,0)"/>
<path d="M0 0 C9.9 0 19.8 0 30 0 C30 9.9 30 19.8 30 30 C20.1 30 10.2 30 0 30 C0 20.1 0 10.2 0 0 Z " fill="#E6E6E6" transform="translate(510,0)"/>
<path d="M0 0 C9.9 0 19.8 0 30 0 C30 9.9 30 19.8 30 30 C20.1 30 10.2 30 0 30 C0 20.1 0 10.2 0 0 Z " fill="#FFFFFF" transform="translate(480,0)"/>
<path d="M0 0 C9.9 0 19.8 0 30 0 C30 9.9 30 19.8 30 30 C20.1 30 10.2 30 0 30 C0 20.1 0 10.2 0 0 Z " fill="#E6E6E6" transform="translate(450,0)"/>
<path d="M0 0 C9.9 0 19.8 0 30 0 C30 9.9 30 19.8 30 30 C20.1 30 10.2 30 0 30 C0 20.1 0 10.2 0 0 Z " fill="#FFFFFF" transform="translate(420,0)"/>
<path d="M0 0 C9.9 0 19.8 0 30 0 C30 9.9 30 19.8 30 30 C20.1 30 10.2 30 0 30 C0 20.1 0 10.2 0 0 Z " fill="#E6E6E6" transform="translate(390,0)"/>
<path d="M0 0 C9.9 0 19.8 0 30 0 C30 9.9 30 19.8 30 30 C20.1 30 10.2 30 0 30 C0 20.1 0 10.2 0 0 Z " fill="#FFFFFF" transform="translate(360,0)"/>
<path d="M0 0 C9.9 0 19.8 0 30 0 C30 9.9 30 19.8 30 30 C20.1 30 10.2 30 0 30 C0 20.1 0 10.2 0 0 Z " fill="#E6E6E6" transform="translate(330,0)"/>
<path d="M0 0 C9.9 0 19.8 0 30 0 C30 9.9 30 19.8 30 30 C20.1 30 10.2 30 0 30 C0 20.1 0 10.2 0 0 Z " fill="#FFFFFF" transform="translate(300,0)"/>
<path d="M0 0 C9.9 0 19.8 0 30 0 C30 9.9 30 19.8 30 30 C20.1 30 10.2 30 0 30 C0 20.1 0 10.2 0 0 Z " fill="#E6E6E6" transform="translate(270,0)"/>
<path d="M0 0 C9.9 0 19.8 0 30 0 C30 9.9 30 19.8 30 30 C20.1 30 10.2 30 0 30 C0 20.1 0 10.2 0 0 Z " fill="#FFFFFF" transform="translate(240,0)"/>
<path d="M0 0 C9.9 0 19.8 0 30 0 C30 9.9 30 19.8 30 30 C20.1 30 10.2 30 0 30 C0 20.1 0 10.2 0 0 Z " fill="#FFFFFF" transform="translate(180,0)"/>
<path d="M0 0 C9.9 0 19.8 0 30 0 C30 9.9 30 19.8 30 30 C20.1 30 10.2 30 0 30 C0 20.1 0 10.2 0 0 Z " fill="#E6E6E6" transform="translate(150,0)"/>
<path d="M0 0 C9.9 0 19.8 0 30 0 C30 9.9 30 19.8 30 30 C20.1 30 10.2 30 0 30 C0 20.1 0 10.2 0 0 Z " fill="#FFFFFF" transform="translate(120,0)"/>
<path d="M0 0 C9.9 0 19.8 0 30 0 C30 9.9 30 19.8 30 30 C20.1 30 10.2 30 0 30 C0 20.1 0 10.2 0 0 Z " fill="#E6E6E6" transform="translate(90,0)"/>
<path d="M0 0 C9.9 0 19.8 0 30 0 C30 9.9 30 19.8 30 30 C20.1 30 10.2 30 0 30 C0 20.1 0 10.2 0 0 Z " fill="#FFFFFF" transform="translate(60,0)"/>
<path d="M0 0 C9.9 0 19.8 0 30 0 C30 9.9 30 19.8 30 30 C20.1 30 10.2 30 0 30 C0 20.1 0 10.2 0 0 Z " fill="#FFFFFF" transform="translate(0,0)"/>
<path d="M0 0 C9.9 0 19.8 0 30 0 C30 9.9 30 19.8 30 30 C20.1 30 10.2 30 0 30 C0 20.1 0 10.2 0 0 Z " fill="#FEFEFE" transform="translate(600,60)"/>
<path d="M0 0 C3.42375 -0.020625 6.8475 -0.04125 10.375 -0.0625 C11.45313965 -0.071604 12.5312793 -0.08070801 13.64208984 -0.09008789 C14.48980957 -0.09258545 15.3375293 -0.09508301 16.2109375 -0.09765625 C17.51490479 -0.10551147 17.51490479 -0.10551147 18.84521484 -0.11352539 C21 0 21 0 23 1 C23 0.67 23 0.34 23 0 C25.31 0 27.62 0 30 0 C30 9.9 30 19.8 30 30 C20.1 30 10.2 30 0 30 C0 20.1 0 10.2 0 0 Z " fill="#FEFEFE" transform="translate(90,570)"/>
<path d="M0 0 C9.9 0 19.8 0 30 0 C30 9.9 30 19.8 30 30 C23.68875 30.061875 23.68875 30.061875 17.25 30.125 C15.9290332 30.14320801 14.60806641 30.16141602 13.24707031 30.18017578 C12.20131836 30.1851709 11.15556641 30.19016602 10.078125 30.1953125 C9.00981445 30.20578613 7.94150391 30.21625977 6.84082031 30.22705078 C4 30 4 30 0 28 C0 18.76 0 9.52 0 0 Z " fill="#FEFEFE" transform="translate(510,210)"/>
<path d="M0 0 C2.10353495 -0.0810206 4.20795952 -0.13919907 6.3125 -0.1875 C7.48425781 -0.22230469 8.65601563 -0.25710938 9.86328125 -0.29296875 C13 0 13 0 14.79296875 1.51171875 C15.19128906 2.00285156 15.58960938 2.49398437 16 3 C16.66 3 17.32 3 18 3 C17.01 2.01 16.02 1.02 15 0 C19.95 0 24.9 0 30 0 C30 9.9 30 19.8 30 30 C20.1 30 10.2 30 0 30 C0 24.06 0 18.12 0 12 C1.98 12.99 1.98 12.99 4 14 C3.34 13.54625 2.68 13.0925 2 12.625 C-1.0151012 8.66767967 -0.33045517 4.80995855 0 0 Z " fill="#FEFEFE" transform="translate(120,540)"/>
<path d="M0 0 C9.9 0 19.8 0 30 0 C30 9.57 30 19.14 30 29 C20.1 29 10.2 29 0 29 C0 19.43 0 9.86 0 0 Z " fill="#060809" transform="translate(428,75)"/>
<path d="M0 0 C9.9 0 19.8 0 30 0 C30 6.6 30 13.2 30 20 C28.68 20.33 27.36 20.66 26 21 C24.71563266 22.9837767 24.71563266 22.9837767 24 25 C25.32 26.65 26.64 28.3 28 30 C18.76 30 9.52 30 0 30 C0 20.1 0 10.2 0 0 Z " fill="#FEFEFE" transform="translate(90,210)"/>
<path d="M0 0 C0.33 0 0.66 0 1 0 C1 5.61 1 11.22 1 17 C6.61 17 12.22 17 18 17 C18 26.9 18 36.8 18 47 C8.1 47 -1.8 47 -12 47 C-12 40.07 -12 33.14 -12 26 C-16.29 26 -20.58 26 -25 26 C-25 25.67 -25 25.34 -25 25 C-16.75 25 -8.5 25 0 25 C0 16.75 0 8.5 0 0 Z " fill="#E5E5E5" transform="translate(402,403)"/>
<path d="M0 0 C9.9 0 19.8 0 30 0 C30 9.9 30 19.8 30 30 C23.07 30 16.14 30 9 30 C9 34.62 9 39.24 9 44 C18.9 44 28.8 44 39 44 C39 44.33 39 44.66 39 45 C28.77 45 18.54 45 8 45 C8 35.43 8 25.86 8 16 C5.36 16 2.72 16 0 16 C0 10.72 0 5.44 0 0 Z " fill="#E0E0E1" transform="translate(420,30)"/>
<path d="M0 0 C9.9 0 19.8 0 30 0 C30 9.9 30 19.8 30 30 C22.08 30 14.16 30 6 30 C6 24.72 6 19.44 6 14 C-2.91 14 -11.82 14 -21 14 C-21 13.67 -21 13.34 -21 13 C-14.07 13 -7.14 13 0 13 C0 8.71 0 4.42 0 0 Z " fill="#E3E3E3" transform="translate(480,90)"/>
<path d="M0 0 C9.24 0 18.48 0 28 0 C28 9.57 28 19.14 28 29 C18.76 29 9.52 29 0 29 C0 19.43 0 9.86 0 0 Z " fill="#0E0E0E" transform="translate(358,317)"/>
<path d="M0 0 C9.24 0 18.48 0 28 0 C28 9.57 28 19.14 28 29 C18.76 29 9.52 29 0 29 C0 19.43 0 9.86 0 0 Z " fill="#090A0A" transform="translate(264,317)"/>
<path d="M0 0 C9.24 0 18.48 0 28 0 C28 9.57 28 19.14 28 29 C18.76 29 9.52 29 0 29 C0 19.43 0 9.86 0 0 Z " fill="#060708" transform="translate(181,75)"/>
<path d="M0 0 C2.31 0 4.62 0 7 0 C6.67 0.66 6.34 1.32 6 2 C5.34 2 4.68 2 4 2 C5.14239817 3.33627775 6.28901055 4.66895388 7.4375 6 C8.07558594 6.7425 8.71367188 7.485 9.37109375 8.25 C10.17740234 9.11625 10.17740234 9.11625 11 10 C12.30670871 10.10314537 12.30670871 10.10314537 14.0625 8.375 C16.63212673 5.73597664 16.63212673 5.73597664 16 0 C20.62 0 25.24 0 30 0 C30 9.9 30 19.8 30 30 C20.1 30 10.2 30 0 30 C0 20.1 0 10.2 0 0 Z " fill="#FEFEFE" transform="translate(570,90)"/>
<path d="M0 0 C9.57 0 19.14 0 29 0 C29 8.91 29 17.82 29 27 C19.43 27 9.86 27 0 27 C0 18.09 0 9.18 0 0 Z " fill="#060809" transform="translate(208,374)"/>
<path d="M0 0 C9.9 0 19.8 0 30 0 C30 8.58 30 17.16 30 26 C20.1 26 10.2 26 0 26 C0 17.42 0 8.84 0 0 Z " fill="#050708" transform="translate(402,376)"/>
<path d="M0 0 C8.58 0 17.16 0 26 0 C26 9.9 26 19.8 26 30 C17.42 30 8.84 30 0 30 C0 20.1 0 10.2 0 0 Z " fill="#FEFEFE" transform="translate(514,270)"/>
<path d="M0 0 C8.58 0 17.16 0 26 0 C26 9.9 26 19.8 26 30 C17.42 30 8.84 30 0 30 C0 20.1 0 10.2 0 0 Z " fill="#E6E6E6" transform="translate(514,240)"/>
<path d="M0 0 C8.91 0 17.82 0 27 0 C27 8.91 27 17.82 27 27 C18.09 27 9.18 27 0 27 C0 18.09 0 9.18 0 0 Z " fill="#0A0C0C" transform="translate(237,401)"/>
<path d="M0 0 C7.92 0 15.84 0 24 0 C24 9.9 24 19.8 24 30 C16.08 30 8.16 30 0 30 C0 20.1 0 10.2 0 0 Z " fill="#E5E5E5" transform="translate(486,150)"/>
<path d="M0 0 C7.92 0 15.84 0 24 0 C24 9.9 24 19.8 24 30 C16.08 30 8.16 30 0 30 C0 20.1 0 10.2 0 0 Z " fill="#FEFEFE" transform="translate(486,120)"/>
<path d="M0 0 C8.91 0 17.82 0 27 0 C25.68 1.65 24.36 3.3 23 5 C23.13149826 7.75124253 23.13149826 7.75124253 24 10 C25.98 10.66 27.96 11.32 30 12 C30 17.94 30 23.88 30 30 C24.06 30 18.12 30 12 30 C13.32 28.68 14.64 27.36 16 26 C15.85387105 22.30567489 15.85387105 22.30567489 15 19 C12.70705512 18.14025199 12.70705512 18.14025199 10 18 C7.7914234 19.87508162 7.7914234 19.87508162 6 22 C5.34 22 4.68 22 4 22 C5.98 24.64 7.96 27.28 10 30 C6.7 30 3.4 30 0 30 C0 20.1 0 10.2 0 0 Z " fill="#FEFEFE" transform="translate(570,390)"/>
<path d="M0 0 C3.3 0 6.6 0 10 0 C10 13.2 10 26.4 10 40 C-3.2 40 -16.4 40 -30 40 C-30 36.7 -30 33.4 -30 30 C-20.1 30 -10.2 30 0 30 C0 20.1 0 10.2 0 0 Z " fill="#E6E6E6" transform="translate(630,600)"/>
<path d="M0 0 C7.92 0 15.84 0 24 0 C24 9.24 24 18.48 24 28 C24.99 28.33 25.98 28.66 27 29 C18.09 29 9.18 29 0 29 C0 19.43 0 9.86 0 0 Z " fill="#E4E4E4" transform="translate(486,210)"/>
<path d="M0 0 C6.93 0 13.86 0 21 0 C21 9.9 21 19.8 21 30 C11.1 30 1.2 30 -9 30 C-9 28.02 -9 26.04 -9 24 C-6.03 24 -3.06 24 0 24 C0 16.08 0 8.16 0 0 Z " fill="#E5E5E5" transform="translate(489,570)"/>
<path d="M0 0 C7.59 0 15.18 0 23 0 C23 7.92 23 15.84 23 24 C5.51 24 -11.98 24 -30 24 C-30 23.01 -30 22.02 -30 21 C-20.1 21 -10.2 21 0 21 C0 14.07 0 7.14 0 0 Z " fill="#FFFFFF" transform="translate(240,429)"/>
<path d="M0 0 C6.93 0 13.86 0 21 0 C21 9.9 21 19.8 21 30 C14.07 30 7.14 30 0 30 C0 20.1 0 10.2 0 0 Z " fill="#FFFFFF" transform="translate(489,540)"/>
<path d="M0 0 C6.93 0 13.86 0 21 0 C21 9.9 21 19.8 21 30 C14.07 30 7.14 30 0 30 C0 20.1 0 10.2 0 0 Z " fill="#E6E6E6" transform="translate(489,510)"/>
<path d="M0 0 C1.32 0 2.64 0 4 0 C4 11.88 4 23.76 4 36 C-4.91 36 -13.82 36 -23 36 C-23 89.13 -23 142.26 -23 197 C-23.33 197 -23.66 197 -24 197 C-24 151.79 -24 106.58 -24 60 C-25.98 60 -27.96 60 -30 60 C-30 50.1 -30 40.2 -30 30 C-20.1 30 -10.2 30 0 30 C0 20.1 0 10.2 0 0 Z " fill="#C1C2C2" transform="translate(150,120)"/>
<path d="M0 0 C8.25 0 16.5 0 25 0 C25 8.25 25 16.5 25 25 C16.75 25 8.5 25 0 25 C0 16.75 0 8.5 0 0 Z " fill="#080A0B" transform="translate(377,403)"/>
<path d="M0 0 C4.29 0 8.58 0 13 0 C13 6.93 13 13.86 13 21 C32.8 21 52.6 21 73 21 C73 21.99 73 22.98 73 24 C76.3 24 79.6 24 83 24 C83 24.33 83 24.66 83 25 C55.61 25 28.22 25 0 25 C0 16.75 0 8.5 0 0 Z " fill="#E6E6E6" transform="translate(377,429)"/>
<path d="M0 0 C9.9 0 19.8 0 30 0 C30 5.28 30 10.56 30 16 C20.1 16 10.2 16 0 16 C0 10.72 0 5.44 0 0 Z " fill="#FEFEFE" transform="translate(390,30)"/>
<path d="M0 0 C9.9 0 19.8 0 30 0 C30 5.28 30 10.56 30 16 C20.1 16 10.2 16 0 16 C0 10.72 0 5.44 0 0 Z " fill="#E5E5E5" transform="translate(360,30)"/>
<path d="M0 0 C9.9 0 19.8 0 30 0 C30 5.28 30 10.56 30 16 C20.1 16 10.2 16 0 16 C0 10.72 0 5.44 0 0 Z " fill="#FEFEFE" transform="translate(330,30)"/>
<path d="M0 0 C9.9 0 19.8 0 30 0 C30 5.28 30 10.56 30 16 C20.1 16 10.2 16 0 16 C0 10.72 0 5.44 0 0 Z " fill="#E5E5E5" transform="translate(300,30)"/>
<path d="M0 0 C9.9 0 19.8 0 30 0 C30 5.28 30 10.56 30 16 C20.1 16 10.2 16 0 16 C0 10.72 0 5.44 0 0 Z " fill="#FEFEFE" transform="translate(270,30)"/>
<path d="M0 0 C9.9 0 19.8 0 30 0 C30 5.28 30 10.56 30 16 C20.1 16 10.2 16 0 16 C0 10.72 0 5.44 0 0 Z " fill="#E5E5E5" transform="translate(240,30)"/>
<path d="M0 0 C9.9 0 19.8 0 30 0 C30 5.28 30 10.56 30 16 C20.1 16 10.2 16 0 16 C0 10.72 0 5.44 0 0 Z " fill="#FEFEFE" transform="translate(210,30)"/>
<path d="M0 0 C8.58 0 17.16 0 26 0 C26 5.94 26 11.88 26 18 C17.42 18 8.84 18 0 18 C0 12.06 0 6.12 0 0 Z " fill="#FFFFFF" transform="translate(210,402)"/>
<path d="M0 0 C9.9 0 19.8 0 30 0 C30 4.29 30 8.58 30 13 C21.42 13 12.84 13 4 13 C4 18.61 4 24.22 4 30 C2.68 30 1.36 30 0 30 C0 20.1 0 10.2 0 0 Z " fill="#FEFEFE" transform="translate(150,90)"/>
<path d="M0 0 C8.91 0 17.82 0 27 0 C27 5.28 27 10.56 27 16 C18.09 16 9.18 16 0 16 C0 10.72 0 5.44 0 0 Z " fill="#FFFFFF" transform="translate(180,374)"/>
<path d="M0 0 C27.39 0 54.78 0 83 0 C83 54.78 83 109.56 83 166 C91.25 166 99.5 166 108 166 C108 157.09 108 148.18 108 139 C108.33 139 108.66 139 109 139 C109 148.24 109 157.48 109 167 C100.42 167 91.84 167 83 167 C83 175.91 83 184.82 83 194 C72.77 194 62.54 194 52 194 C52 193.67 52 193.34 52 193 C61.9 193 71.8 193 82 193 C82 184.42 82 175.84 82 167 C72.1 167 62.2 167 52 167 C52 166.67 52 166.34 52 166 C61.9 166 71.8 166 82 166 C82 111.55 82 57.1 82 1 C54.94 1 27.88 1 0 1 C0 0.67 0 0.34 0 0 Z " fill="#8C7764" transform="translate(350,209)"/>
<path d="M0 0 C8.91 0 17.82 0 27 0 C27 4.62 27 9.24 27 14 C18.09 14 9.18 14 0 14 C0 9.38 0 4.76 0 0 Z " fill="#FFFFFF" transform="translate(180,60)"/>
<path d="M0 0 C1.98 0 3.96 0 6 0 C6 19.8 6 39.6 6 60 C4.02 60 2.04 60 0 60 C0 40.2 0 20.4 0 0 Z " fill="#E6E6E6" transform="translate(120,240)"/>
<path d="M0 0 C3.83776322 1.56353316 6.34999338 3.83471431 9 7 C9.5 9.625 9.5 9.625 9 12 C7.75 13.8125 7.75 13.8125 6 15 C4.68 15 3.36 15 2 15 C2 14.34 2 13.68 2 13 C3.32 12.67 4.64 12.34 6 12 C5.67 11.67 5.34 11.34 5 11 C4.67 11.33 4.34 11.66 4 12 C1.66702567 12.04092937 -0.66705225 12.04241723 -3 12 C-2.34 13.32 -1.68 14.64 -1 16 C-3.46800047 14.84826645 -5.04783565 13.95216435 -7 12 C-7.99 12 -8.98 12 -10 12 C-9.50168276 15.68754757 -8.89932357 17.60490662 -6 20 C-6.33 20.66 -6.66 21.32 -7 22 C-8.32 20.68 -9.64 19.36 -11 18 C-10.979375 19.27875 -10.95875 20.5575 -10.9375 21.875 C-10.85431392 27.03253685 -11.47489197 31.74891968 -12 37 C24.63 37 61.26 37 99 37 C99 29.08 99 21.16 99 13 C99.33 13 99.66 13 100 13 C100 21.25 100 29.5 100 38 C62.71 38 25.42 38 -13 38 C-13 29.09 -13 20.18 -13 11 C-11.02 10.34 -9.04 9.68 -7 9 C-6.34 9.33 -5.68 9.66 -5 10 C-5.103125 9.0925 -5.20625 8.185 -5.3125 7.25 C-5 4 -5 4 -2.5 1.625 C-1.675 1.08875 -0.85 0.5525 0 0 Z " fill="#D7AC89" transform="translate(277,390)"/>
<path d="M0 0 C9.9 0 19.8 0 30 0 C30 3.3 30 6.6 30 10 C20.1 10 10.2 10 0 10 C0 6.7 0 3.4 0 0 Z " fill="#E6E6E6" transform="translate(600,630)"/>
<path d="M0 0 C9.9 0 19.8 0 30 0 C30 3.3 30 6.6 30 10 C20.1 10 10.2 10 0 10 C0 6.7 0 3.4 0 0 Z " fill="#FFFFFF" transform="translate(570,630)"/>
<path d="M0 0 C9.9 0 19.8 0 30 0 C30 3.3 30 6.6 30 10 C20.1 10 10.2 10 0 10 C0 6.7 0 3.4 0 0 Z " fill="#E6E6E6" transform="translate(540,630)"/>
<path d="M0 0 C9.9 0 19.8 0 30 0 C30 3.3 30 6.6 30 10 C20.1 10 10.2 10 0 10 C0 6.7 0 3.4 0 0 Z " fill="#FFFFFF" transform="translate(510,630)"/>
<path d="M0 0 C9.9 0 19.8 0 30 0 C30 3.3 30 6.6 30 10 C20.1 10 10.2 10 0 10 C0 6.7 0 3.4 0 0 Z " fill="#E6E6E6" transform="translate(480,630)"/>
<path d="M0 0 C9.9 0 19.8 0 30 0 C30 3.3 30 6.6 30 10 C20.1 10 10.2 10 0 10 C0 6.7 0 3.4 0 0 Z " fill="#FFFFFF" transform="translate(450,630)"/>
<path d="M0 0 C9.9 0 19.8 0 30 0 C30 3.3 30 6.6 30 10 C20.1 10 10.2 10 0 10 C0 6.7 0 3.4 0 0 Z " fill="#E6E6E6" transform="translate(420,630)"/>
<path d="M0 0 C9.9 0 19.8 0 30 0 C30 3.3 30 6.6 30 10 C20.1 10 10.2 10 0 10 C0 6.7 0 3.4 0 0 Z " fill="#FFFFFF" transform="translate(390,630)"/>
<path d="M0 0 C9.9 0 19.8 0 30 0 C30 3.3 30 6.6 30 10 C20.1 10 10.2 10 0 10 C0 6.7 0 3.4 0 0 Z " fill="#E6E6E6" transform="translate(360,630)"/>
<path d="M0 0 C9.9 0 19.8 0 30 0 C30 3.3 30 6.6 30 10 C20.1 10 10.2 10 0 10 C0 6.7 0 3.4 0 0 Z " fill="#FFFFFF" transform="translate(330,630)"/>
<path d="M0 0 C9.9 0 19.8 0 30 0 C30 3.3 30 6.6 30 10 C20.1 10 10.2 10 0 10 C0 6.7 0 3.4 0 0 Z " fill="#E6E6E6" transform="translate(300,630)"/>
<path d="M0 0 C9.9 0 19.8 0 30 0 C30 3.3 30 6.6 30 10 C20.1 10 10.2 10 0 10 C0 6.7 0 3.4 0 0 Z " fill="#FFFFFF" transform="translate(270,630)"/>
<path d="M0 0 C9.9 0 19.8 0 30 0 C30 3.3 30 6.6 30 10 C20.1 10 10.2 10 0 10 C0 6.7 0 3.4 0 0 Z " fill="#E6E6E6" transform="translate(240,630)"/>
<path d="M0 0 C9.9 0 19.8 0 30 0 C30 3.3 30 6.6 30 10 C20.1 10 10.2 10 0 10 C0 6.7 0 3.4 0 0 Z " fill="#FFFFFF" transform="translate(210,630)"/>
<path d="M0 0 C9.9 0 19.8 0 30 0 C30 3.3 30 6.6 30 10 C20.1 10 10.2 10 0 10 C0 6.7 0 3.4 0 0 Z " fill="#E6E6E6" transform="translate(180,630)"/>
<path d="M0 0 C9.9 0 19.8 0 30 0 C30 3.3 30 6.6 30 10 C20.1 10 10.2 10 0 10 C0 6.7 0 3.4 0 0 Z " fill="#FFFFFF" transform="translate(150,630)"/>
<path d="M0 0 C9.9 0 19.8 0 30 0 C30 3.3 30 6.6 30 10 C20.1 10 10.2 10 0 10 C0 6.7 0 3.4 0 0 Z " fill="#E6E6E6" transform="translate(120,630)"/>
<path d="M0 0 C9.9 0 19.8 0 30 0 C30 3.3 30 6.6 30 10 C20.1 10 10.2 10 0 10 C0 6.7 0 3.4 0 0 Z " fill="#FFFFFF" transform="translate(90,630)"/>
<path d="M0 0 C9.9 0 19.8 0 30 0 C30 3.3 30 6.6 30 10 C20.1 10 10.2 10 0 10 C0 6.7 0 3.4 0 0 Z " fill="#E6E6E6" transform="translate(60,630)"/>
<path d="M0 0 C9.9 0 19.8 0 30 0 C30 3.3 30 6.6 30 10 C20.1 10 10.2 10 0 10 C0 6.7 0 3.4 0 0 Z " fill="#FFFFFF" transform="translate(30,630)"/>
<path d="M0 0 C9.9 0 19.8 0 30 0 C30 3.3 30 6.6 30 10 C20.1 10 10.2 10 0 10 C0 6.7 0 3.4 0 0 Z " fill="#E6E6E6" transform="translate(0,630)"/>
<path d="M0 0 C3.3 0 6.6 0 10 0 C10 9.9 10 19.8 10 30 C6.7 30 3.4 30 0 30 C0 20.1 0 10.2 0 0 Z " fill="#FFFFFF" transform="translate(630,570)"/>
<path d="M0 0 C3.3 0 6.6 0 10 0 C10 9.9 10 19.8 10 30 C6.7 30 3.4 30 0 30 C0 20.1 0 10.2 0 0 Z " fill="#E6E6E6" transform="translate(630,540)"/>
<path d="M0 0 C3.3 0 6.6 0 10 0 C10 9.9 10 19.8 10 30 C6.7 30 3.4 30 0 30 C0 20.1 0 10.2 0 0 Z " fill="#FFFFFF" transform="translate(630,510)"/>
<path d="M0 0 C3.3 0 6.6 0 10 0 C10 9.9 10 19.8 10 30 C6.7 30 3.4 30 0 30 C0 20.1 0 10.2 0 0 Z " fill="#E6E6E6" transform="translate(630,480)"/>
<path d="M0 0 C3.3 0 6.6 0 10 0 C10 9.9 10 19.8 10 30 C6.7 30 3.4 30 0 30 C0 20.1 0 10.2 0 0 Z " fill="#FFFFFF" transform="translate(630,450)"/>
<path d="M0 0 C3.3 0 6.6 0 10 0 C10 9.9 10 19.8 10 30 C6.7 30 3.4 30 0 30 C0 20.1 0 10.2 0 0 Z " fill="#E6E6E6" transform="translate(630,420)"/>
<path d="M0 0 C3.3 0 6.6 0 10 0 C10 9.9 10 19.8 10 30 C6.7 30 3.4 30 0 30 C0 20.1 0 10.2 0 0 Z " fill="#FFFFFF" transform="translate(630,390)"/>
<path d="M0 0 C3.3 0 6.6 0 10 0 C10 9.9 10 19.8 10 30 C6.7 30 3.4 30 0 30 C0 20.1 0 10.2 0 0 Z " fill="#E6E6E6" transform="translate(630,360)"/>
<path d="M0 0 C3.3 0 6.6 0 10 0 C10 9.9 10 19.8 10 30 C6.7 30 3.4 30 0 30 C0 20.1 0 10.2 0 0 Z " fill="#FFFFFF" transform="translate(630,330)"/>
<path d="M0 0 C3.3 0 6.6 0 10 0 C10 9.9 10 19.8 10 30 C6.7 30 3.4 30 0 30 C0 20.1 0 10.2 0 0 Z " fill="#E6E6E6" transform="translate(630,300)"/>
<path d="M0 0 C3.3 0 6.6 0 10 0 C10 9.9 10 19.8 10 30 C6.7 30 3.4 30 0 30 C0 20.1 0 10.2 0 0 Z " fill="#FFFFFF" transform="translate(630,270)"/>
<path d="M0 0 C3.3 0 6.6 0 10 0 C10 9.9 10 19.8 10 30 C6.7 30 3.4 30 0 30 C0 20.1 0 10.2 0 0 Z " fill="#E6E6E6" transform="translate(630,240)"/>
<path d="M0 0 C3.3 0 6.6 0 10 0 C10 9.9 10 19.8 10 30 C6.7 30 3.4 30 0 30 C0 20.1 0 10.2 0 0 Z " fill="#FFFFFF" transform="translate(630,210)"/>
<path d="M0 0 C3.3 0 6.6 0 10 0 C10 9.9 10 19.8 10 30 C6.7 30 3.4 30 0 30 C0 20.1 0 10.2 0 0 Z " fill="#E6E6E6" transform="translate(630,180)"/>
<path d="M0 0 C3.3 0 6.6 0 10 0 C10 9.9 10 19.8 10 30 C6.7 30 3.4 30 0 30 C0 20.1 0 10.2 0 0 Z " fill="#FFFFFF" transform="translate(630,150)"/>
<path d="M0 0 C3.3 0 6.6 0 10 0 C10 9.9 10 19.8 10 30 C6.7 30 3.4 30 0 30 C0 20.1 0 10.2 0 0 Z " fill="#E6E6E6" transform="translate(630,120)"/>
<path d="M0 0 C3.3 0 6.6 0 10 0 C10 9.9 10 19.8 10 30 C6.7 30 3.4 30 0 30 C0 20.1 0 10.2 0 0 Z " fill="#FFFFFF" transform="translate(630,90)"/>
<path d="M0 0 C3.3 0 6.6 0 10 0 C10 9.9 10 19.8 10 30 C6.7 30 3.4 30 0 30 C0 20.1 0 10.2 0 0 Z " fill="#E6E6E6" transform="translate(630,60)"/>
<path d="M0 0 C3.3 0 6.6 0 10 0 C10 9.9 10 19.8 10 30 C6.7 30 3.4 30 0 30 C0 20.1 0 10.2 0 0 Z " fill="#FFFFFF" transform="translate(630,30)"/>
<path d="M0 0 C3.3 0 6.6 0 10 0 C10 9.9 10 19.8 10 30 C6.7 30 3.4 30 0 30 C0 20.1 0 10.2 0 0 Z " fill="#E6E6E6" transform="translate(630,0)"/>
<path d="M0 0 C6.93 0 13.86 0 21 0 C21 4.62 21 9.24 21 14 C14.07 14 7.14 14 0 14 C0 9.38 0 4.76 0 0 Z " fill="#FFFFFF" transform="translate(429,60)"/>
<path d="M0 0 C5.61 0 11.22 0 17 0 C17 5.61 17 11.22 17 17 C11.39 17 5.78 17 0 17 C0 11.39 0 5.78 0 0 Z " fill="#FEFEFE" transform="translate(403,403)"/>
<path d="M0 0 C4.29 0 8.58 0 13 0 C13 6.93 13 13.86 13 21 C8.71 21 4.42 21 0 21 C0 14.07 0 7.14 0 0 Z " fill="#FEFEFE" transform="translate(377,429)"/>
<path d="M0 0 C6.93 0 13.86 0 21 0 C21 4.29 21 8.58 21 13 C14.07 13 7.14 13 0 13 C0 8.71 0 4.42 0 0 Z " fill="#FEFEFE" transform="translate(459,90)"/>
<path d="M0 0 C0.33 0 0.66 0 1 0 C1 8.58 1 17.16 1 26 C-26.06 26 -53.12 26 -81 26 C-81 36.56 -81 47.12 -81 58 C-81.66 58 -82.32 58 -83 58 C-83 46.12 -83 34.24 -83 22 C-73.1 22 -63.2 22 -53 22 C-53 22.99 -53 23.98 -53 25 C-35.51 25 -18.02 25 0 25 C0 16.75 0 8.5 0 0 Z " fill="#D4D5D5" transform="translate(263,428)"/>
<path d="M0 0 C6.93 0 13.86 0 21 0 C21 3.96 21 7.92 21 12 C14.07 12 7.14 12 0 12 C0 8.04 0 4.08 0 0 Z " fill="#FEFEFE" transform="translate(459,348)"/>
<path d="M0 0 C5.61 0 11.22 0 17 0 C17 4.62 17 9.24 17 14 C11.39 14 5.78 14 0 14 C0 9.38 0 4.76 0 0 Z " fill="#FEFEFE" transform="translate(433,376)"/>
<path d="M0 0 C9.9 0 19.8 0 30 0 C30 1.98 30 3.96 30 6 C20.1 6 10.2 6 0 6 C0 4.02 0 2.04 0 0 Z " fill="#FDFDFD" transform="translate(450,594)"/>
<path d="M0 0 C9.9 0 19.8 0 30 0 C30 1.98 30 3.96 30 6 C20.1 6 10.2 6 0 6 C0 4.02 0 2.04 0 0 Z " fill="#E4E4E4" transform="translate(420,594)"/>
<path d="M0 0 C9.9 0 19.8 0 30 0 C30 1.98 30 3.96 30 6 C20.1 6 10.2 6 0 6 C0 4.02 0 2.04 0 0 Z " fill="#FDFDFD" transform="translate(390,594)"/>
<path d="M0 0 C9.9 0 19.8 0 30 0 C30 1.98 30 3.96 30 6 C20.1 6 10.2 6 0 6 C0 4.02 0 2.04 0 0 Z " fill="#E4E4E4" transform="translate(360,594)"/>
<path d="M0 0 C9.9 0 19.8 0 30 0 C30 1.98 30 3.96 30 6 C20.1 6 10.2 6 0 6 C0 4.02 0 2.04 0 0 Z " fill="#FDFDFD" transform="translate(330,594)"/>
<path d="M0 0 C9.9 0 19.8 0 30 0 C30 1.98 30 3.96 30 6 C20.1 6 10.2 6 0 6 C0 4.02 0 2.04 0 0 Z " fill="#E4E4E4" transform="translate(300,594)"/>
<path d="M0 0 C9.9 0 19.8 0 30 0 C30 1.98 30 3.96 30 6 C20.1 6 10.2 6 0 6 C0 4.02 0 2.04 0 0 Z " fill="#FDFDFD" transform="translate(270,594)"/>
<path d="M0 0 C9.9 0 19.8 0 30 0 C30 1.98 30 3.96 30 6 C20.1 6 10.2 6 0 6 C0 4.02 0 2.04 0 0 Z " fill="#E4E4E4" transform="translate(240,594)"/>
<path d="M0 0 C9.9 0 19.8 0 30 0 C30 1.98 30 3.96 30 6 C20.1 6 10.2 6 0 6 C0 4.02 0 2.04 0 0 Z " fill="#FDFDFD" transform="translate(210,594)"/>
<path d="M0 0 C9.9 0 19.8 0 30 0 C30 1.98 30 3.96 30 6 C20.1 6 10.2 6 0 6 C0 4.02 0 2.04 0 0 Z " fill="#E4E4E4" transform="translate(180,594)"/>
<path d="M0 0 C1.98 0 3.96 0 6 0 C6 9.9 6 19.8 6 30 C4.02 30 2.04 30 0 30 C0 20.1 0 10.2 0 0 Z " fill="#FEFEFE" transform="translate(120,240)"/>
<path d="M0 0 C1.98 0 3.96 0 6 0 C6 9.9 6 19.8 6 30 C4.02 30 2.04 30 0 30 C0 20.1 0 10.2 0 0 Z " fill="#FFFFFF" transform="translate(120,180)"/>
<path d="M0 0 C21.45 0 42.9 0 65 0 C65 0.33 65 0.66 65 1 C48.17 1 31.34 1 14 1 C13.34 2.32 12.68 3.64 12 5 C10.96875 4.855625 9.9375 4.71125 8.875 4.5625 C4.5887237 5.04643442 4.18726114 5.38661985 1.5625 8.5 C0.68765024 9.65123833 -0.17366038 10.81346106 -1 12 C0.96971804 11.69535873 0.96971804 11.69535873 3 11 C4.29660434 8.50965614 4.29660434 8.50965614 5 6 C5.33 6 5.66 6 6 6 C6.125 8.375 6.125 8.375 6 11 C4 13 4 13 1.0625 13.3125 C-2 13 -2 13 -3.875 11.8125 C-5.40659584 9.34492892 -5.42822025 7.85480169 -5 5 C-3.8125 3.1875 -3.8125 3.1875 -2 2 C0.625 1.875 0.625 1.875 3 2 C3.33 1.67 3.66 1.34 4 1 C2.68 0.67 1.36 0.34 0 0 Z " fill="#C59E7E" transform="translate(293,373)"/>
<path d="M0 0 C7.92 0 15.84 0 24 0 C24 2.31 24 4.62 24 7 C16.08 7 8.16 7 0 7 C0 4.69 0 2.38 0 0 Z " fill="#FDFDFD" transform="translate(486,323)"/>
<path d="M0 0 C0.33 0 0.66 0 1 0 C1.33 5.94 1.66 11.88 2 18 C2.66 17.34 3.32 16.68 4 16 C7.625 16.375 7.625 16.375 11 17 C11.6875 20.3125 11.6875 20.3125 12 24 C11.01 24.99 10.02 25.98 9 27 C15.93 27.33 22.86 27.66 30 28 C30 28.33 30 28.66 30 29 C20.1 29 10.2 29 0 29 C0 19.43 0 9.86 0 0 Z " fill="#151414" transform="translate(428,75)"/>
<path d="M0 0 C2.57894908 1.01800621 3.76750435 1.68700609 5.375 3.9375 C6.30652267 6.732068 6.57470932 8.30206125 5.6875 11.125 C4.07260622 13.35509141 3.00311646 14.11152054 0.375 14.9375 C-2.36732501 14.73684207 -4.10394933 14.26091076 -6.4375 12.8125 C-8.37684222 9.75038071 -8.11918123 7.45854126 -7.625 3.9375 C-5.12942843 1.08541821 -3.84213882 -0.0914795 0 0 Z " fill="#0D0F10" transform="translate(208.625,461.0625)"/>
<path d="M0 0 C0.33 0 0.66 0 1 0 C1 8.58 1 17.16 1 26 C7.27 26 13.54 26 20 26 C20 27.65 20 29.3 20 31 C22.97 31 25.94 31 29 31 C29 31.33 29 31.66 29 32 C19.43 32 9.86 32 0 32 C0 21.44 0 10.88 0 0 Z " fill="#DFDFDF" transform="translate(460,454)"/>
<path d="M0 0 C1.32 0 2.64 0 4 0 C4 11.55 4 23.1 4 35 C2.68 35 1.36 35 0 35 C0 23.45 0 11.9 0 0 Z " fill="#E5E5E5" transform="translate(150,120)"/>
<path d="M0 0 C4.29 0 8.58 0 13 0 C13 0.99 13 1.98 13 3 C36.1 3 59.2 3 83 3 C83 3.33 83 3.66 83 4 C55.61 4 28.22 4 0 4 C0 2.68 0 1.36 0 0 Z " fill="#CDCDCE" transform="translate(377,450)"/>
<path d="M0 0 C0.02685938 2.14576637 0.04633088 4.29162645 0.0625 6.4375 C0.07410156 7.63246094 0.08570313 8.82742188 0.09765625 10.05859375 C0 13 0 13 -1 14 C-4.2488448 14.43903308 -5.59797415 14.28250465 -8.3125 12.375 C-10.50197249 9.2935202 -10.61793165 7.70758991 -10 4 C-7.09279077 -0.24899811 -4.90611279 -0.17473826 0 0 Z " fill="#F5F5F5" transform="translate(210,612)"/>
<path d="M0 0 C4.22435427 1.56457565 6.49058647 4.343426 9 8 C8.92087652 11.48143326 8.46645256 12.53354744 6 15 C3.875 14.625 3.875 14.625 2 14 C3.32 13.34 4.64 12.68 6 12 C6 11.01 6 10.02 6 9 C5.01 10.485 5.01 10.485 4 12 C0.83740129 12.40373601 -1.14012639 12.54458662 -3.875 10.8125 C-5.45090926 8.27353509 -5.57287294 6.93597381 -5 4 C-2.5 1.6875 -2.5 1.6875 0 0 Z " fill="#EFEFEF" transform="translate(127,540)"/>
<path d="M0 0 C3.3 0 6.6 0 10 0 C10 3.3 10 6.6 10 10 C6.7 10 3.4 10 0 10 C0 6.7 0 3.4 0 0 Z " fill="#FFFFFF" transform="translate(630,630)"/>
<path d="M0 0 C2.4375 2.125 2.4375 2.125 4 5 C4 8.56090901 3.69349238 10.25697245 1.25 12.875 C-1.52316728 14.26158364 -2.94430168 14.61113966 -6 14 C-8.375 11.9375 -8.375 11.9375 -10 9 C-9.9375 5.3125 -9.9375 5.3125 -9 2 C-5.50434664 -0.33043558 -4.1134271 -0.58763244 0 0 Z M-4 1 C-4.66 3.31 -5.32 5.62 -6 8 C-3.525 8.495 -3.525 8.495 -1 9 C-1.33 9.99 -1.66 10.98 -2 12 C0.03241727 11.36020151 0.03241727 11.36020151 2 10 C3.16977494 7.65127469 3.16977494 7.65127469 3 5 C1.35380651 2.60371845 1.35380651 2.60371845 -1 1 C-1.99 1 -2.98 1 -4 1 Z " fill="#DCDCDC" transform="translate(530,612)"/>
<path d="M0 0 C3.0625 0.375 3.0625 0.375 5 2.0625 C6.34483625 4.98949654 6.09365662 6.36084989 5.0625 9.375 C3.0625 11.375 3.0625 11.375 0.625 11.6875 C-1.9375 11.375 -1.9375 11.375 -3.75 10.25 C-5.46599028 7.54054166 -5.271228 5.51204316 -4.9375 2.375 C-2.9375 0.375 -2.9375 0.375 0 0 Z " fill="#DBDBDB" transform="translate(621.9375,46.625)"/>
<path d="M0 0 C0.99 0 1.98 0 3 0 C3 9.9 3 19.8 3 30 C2.01 30 1.02 30 0 30 C0 20.1 0 10.2 0 0 Z " fill="#F9F9F9" transform="translate(150,510)"/>
<path d="M0 0 C9.9 0 19.8 0 30 0 C30 0.99 30 1.98 30 3 C20.1 3 10.2 3 0 3 C0 2.01 0 1.02 0 0 Z " fill="#FFFFFF" transform="translate(390,450)"/>
<path d="M0 0 C1.875 1.5 1.875 1.5 3 3 C2.34 4.65 1.68 6.3 1 8 C-2.63 8 -6.26 8 -10 8 C-9.6875 5.125 -9.6875 5.125 -9 2 C-5.53076119 -0.31282587 -4.07794425 -0.42478586 0 0 Z " fill="#F8F8F8" transform="translate(530,292)"/>
<path d="M0 0 C1.32 0 2.64 0 4 0 C6.125 2.4375 6.125 2.4375 8 5 C8.66 5.33 9.32 5.66 10 6 C10 7.32 10 8.64 10 10 C2.89006342 10.7230444 2.89006342 10.7230444 0.35546875 8.6640625 C-1 7 -1 7 -3 4 C-1.75 2 -1.75 2 0 0 Z " fill="#E5E5E5" transform="translate(116,230)"/>
<path d="M0 0 C2.475 0.495 2.475 0.495 5 1 C7.32749345 4.49124017 7.50299316 5.89222251 7 10 C5.1875 12.375 5.1875 12.375 3 14 C2.01 14 1.02 14 0 14 C0 9.38 0 4.76 0 0 Z " fill="#DFDFDF" transform="translate(60,465)"/>
<path d="M0 0 C0.94875 0.04125 1.8975 0.0825 2.875 0.125 C2.875 4.125 2.875 4.125 0.875 6.375 C-0.115 7.24125 -0.115 7.24125 -1.125 8.125 C0.195 8.125 1.515 8.125 2.875 8.125 C3.205 6.805 3.535 5.485 3.875 4.125 C4.535 4.125 5.195 4.125 5.875 4.125 C5.125 8.875 5.125 8.875 2.875 11.125 C0.06515752 11.48523622 -1.50741919 11.50832602 -3.9375 10 C-5.65349028 7.29054166 -5.458728 5.26204316 -5.125 2.125 C-3.125 0.125 -3.125 0.125 0 0 Z " fill="#EFEFEF" transform="translate(622.125,366.875)"/>
<path d="M0 0 C8.91 0 17.82 0 27 0 C27 4.29 27 8.58 27 13 C25.68 13 24.36 13 23 13 C23 9.04 23 5.08 23 1 C15.41 1 7.82 1 0 1 C0 0.67 0 0.34 0 0 Z " fill="#D7D7D7" transform="translate(127,317)"/>
<path d="M0 0 C-0.57352893 3.87132028 -2.48704352 6.08172796 -5 9 C-3.04105639 8.88693303 -3.04105639 8.88693303 -1 8 C0.29660434 5.50965614 0.29660434 5.50965614 1 3 C1.33 3 1.66 3 2 3 C2.125 5.375 2.125 5.375 2 8 C0 10 0 10 -2.9375 10.3125 C-6 10 -6 10 -7.875 8.8125 C-9.42229478 6.31963619 -9.50405716 4.88032665 -9 2 C-6.04897468 -1.27891703 -4.09533092 -1.25135112 0 0 Z " fill="#D8D8D8" transform="translate(147,526)"/>
<path d="M0 0 C0 4.29 0 8.58 0 13 C-1.65 12.67 -3.3 12.34 -5 12 C-7.16551116 8.75173326 -7.55156953 7.76905843 -7 4 C-3.86486486 0 -3.86486486 0 0 0 Z " fill="#F7F7F7" transform="translate(60,465)"/>
<path d="M0 0 C-0.57352893 3.87132028 -2.48704352 6.08172796 -5 9 C-1.18586998 7.8321734 -1.18586998 7.8321734 1.3125 4.875 C1.539375 4.25625 1.76625 3.6375 2 3 C2.125 5.375 2.125 5.375 2 8 C0 10 0 10 -2.9375 10.3125 C-6 10 -6 10 -7.875 8.8125 C-9.42229478 6.31963619 -9.50405716 4.88032665 -9 2 C-6.04897468 -1.27891703 -4.09533092 -1.25135112 0 0 Z " fill="#F0F0F0" transform="translate(617,376)"/>
<path d="M0 0 C1.33333333 2.66666667 2.66666667 5.33333333 4 8 C1.53199953 6.84826645 -0.04783565 5.95216435 -2 4 C-2.99 4 -3.98 4 -5 4 C-4.50168276 7.68754757 -3.89932357 9.60490662 -1 12 C-1.33 12.66 -1.66 13.32 -2 14 C-3.32 12.68 -4.64 11.36 -6 10 C-5.979375 11.27875 -5.95875 12.5575 -5.9375 13.875 C-5.92941245 18.96207017 -6.40979211 23.9516147 -7 29 C-7.33 29 -7.66 29 -8 29 C-8 20.42 -8 11.84 -8 3 C-6.02 2.34 -4.04 1.68 -2 1 C-1.34 1.33 -0.68 1.66 0 2 C0 1.34 0 0.68 0 0 Z " fill="#E8BA94" transform="translate(272,398)"/>
<path d="M0 0 C7.59 0 15.18 0 23 0 C23 0.99 23 1.98 23 3 C15.41 3 7.82 3 0 3 C0 2.01 0 1.02 0 0 Z " fill="#E6E6E6" transform="translate(240,450)"/>
<path d="M0 0 C0.28875 0.61875 0.5775 1.2375 0.875 1.875 C1.93720042 4.13325765 1.93720042 4.13325765 4 6 C4.125 8.625 4.125 8.625 4 11 C0 11 0 11 -1.5625 9.5625 C-2.036875 9.046875 -2.51125 8.53125 -3 8 C-3.99 7.67 -4.98 7.34 -6 7 C-6.33 5.35 -6.66 3.7 -7 2 C-4.525 2.495 -4.525 2.495 -2 3 C-2 2.34 -2 1.68 -2 1 C-1.34 0.67 -0.68 0.34 0 0 Z " fill="#3CB9C8" transform="translate(455,532)"/>
<path d="M0 0 C0.2475 0.598125 0.495 1.19625 0.75 1.8125 C2.16370012 4.28647521 3.65055383 5.43370255 6 7 C5.33333333 8.33333333 4.66666667 9.66666667 4 11 C0.05362526 10.43623218 -2.83196811 9.4640248 -6 7 C-6.8125 4.3125 -6.8125 4.3125 -7 2 C-4.525 2.495 -4.525 2.495 -2 3 C-2 2.34 -2 1.68 -2 1 C-1.34 0.67 -0.68 0.34 0 0 Z " fill="#F3C29A" transform="translate(285,382)"/>
<path d="M0 0 C4.62 0 9.24 0 14 0 C11 5 11 5 7.5625 6.125 C4 6 4 6 1.5625 3.625 C0 1 0 1 0 0 Z " fill="#DEDEDE" transform="translate(520,300)"/>
<path d="M0 0 C0.268125 0.5775 0.53625 1.155 0.8125 1.75 C1.93880119 4.06461975 1.93880119 4.06461975 3.6875 6.0625 C4.120625 6.701875 4.55375 7.34125 5 8 C4.67 8.99 4.34 9.98 4 11 C0.17902761 10.46930939 -2.06171403 9.50298434 -5 7 C-4.67 5.68 -4.34 4.36 -4 3 C-3.34 3 -2.68 3 -2 3 C-2 2.34 -2 1.68 -2 1 C-1.34 0.67 -0.68 0.34 0 0 Z " fill="#F7F7F7" transform="translate(605,62)"/>
<path d="M0 0 C5.84126984 4.25925926 5.84126984 4.25925926 6.5625 7.625 C5.91305585 10.36709752 5.2950514 11.38496383 3 13 C2.01 13 1.02 13 0 13 C0 8.71 0 4.42 0 0 Z " fill="#DCDCDC" transform="translate(600,392)"/>
<path d="M0 0 C5.84126984 4.25925926 5.84126984 4.25925926 6.5625 7.625 C5.91305585 10.36709752 5.2950514 11.38496383 3 13 C2.01 13 1.02 13 0 13 C0 8.71 0 4.42 0 0 Z " fill="#F4F4F4" transform="translate(600,72)"/>
<path d="M0 0 C2.97 0.495 2.97 0.495 6 1 C6.625 2.8125 6.625 2.8125 7 5 C6.01 6.485 6.01 6.485 5 8 C2.375 8.1875 2.375 8.1875 0 8 C-1.125 5.6875 -1.125 5.6875 -2 3 C-1.34 2.01 -0.68 1.02 0 0 Z " fill="#FDFDFD" transform="translate(579,409)"/>
<path d="M0 0 C2.25 1 2.25 1 4.25 4 C4.6875 6.4375 4.6875 6.4375 4.25 9 C1.75 11.3125 1.75 11.3125 -0.75 13 C-4.11179774 11.55922954 -6.34156268 9.75249979 -8.75 7 C-8.75 5 -8.75 5 -6.0625 2.3125 C-3.71264347 0.42928165 -3.11282239 0 0 0 Z M-3.75 2 C-4.94838209 4.32854463 -4.94838209 4.32854463 -5.75 7 C-4.76 8.485 -4.76 8.485 -3.75 10 C-1.16619823 10.25030977 -1.16619823 10.25030977 1.25 10 C1.91 8.35 2.57 6.7 3.25 5 C2.0011573 3.4166747 2.0011573 3.4166747 0.25 2 C-1.07 2 -2.39 2 -3.75 2 Z " fill="#F0F0F0" transform="translate(582.75,407)"/>
<path d="M0 0 C2.5625 0.1875 2.5625 0.1875 4.5625 2.1875 C4.1875 4.8125 4.1875 4.8125 3.5625 7.1875 C1.1875 7.8125 1.1875 7.8125 -1.4375 8.1875 C-3.4375 6.1875 -3.4375 6.1875 -3.625 3.625 C-3.37291261 0.34786389 -3.27713611 0.25208739 0 0 Z " fill="#F9C79F" transform="translate(277.4375,392.8125)"/>
<path d="M0 0 C3.125 0.25 3.125 0.25 5 1.4375 C6.57590926 3.97646491 6.69787294 5.31402619 6.125 8.25 C3.625 10.5625 3.625 10.5625 1.125 12.25 C-2.6702131 10.75902342 -4.48542731 8.49299151 -6.875 5.25 C-6.215 5.25 -5.555 5.25 -4.875 5.25 C-4.6584375 4.2909375 -4.6584375 4.2909375 -4.4375 3.3125 C-3.57686874 0.15685203 -3.3902445 0.29480387 0 0 Z M-1.875 1.25 C-3.07338209 3.57854463 -3.07338209 3.57854463 -3.875 6.25 C-2.885 7.735 -2.885 7.735 -1.875 9.25 C0.66707971 9.58343551 0.66707971 9.58343551 3.125 9.25 C4.39503323 8.19689723 4.39503323 8.19689723 4.3125 5.8125 C4.39339983 3.08265325 4.39339983 3.08265325 2.125 1.25 C0.805 1.25 -0.515 1.25 -1.875 1.25 Z " fill="#D7D7D7" transform="translate(110.875,557.75)"/>
<path d="M0 0 C1.2065625 0.0309375 1.2065625 0.0309375 2.4375 0.0625 C3.5625 2.375 3.5625 2.375 4.4375 5.0625 C3.4475 6.5475 3.4475 6.5475 2.4375 8.0625 C-2.4375 7.1875 -2.4375 7.1875 -3.5625 6.0625 C-3.6875 3.5625 -3.6875 3.5625 -3.5625 1.0625 C-2.5625 0.0625 -2.5625 0.0625 0 0 Z " fill="#3EC0CF" transform="translate(447.5625,542.9375)"/>
<path d="M0 0 C1.2065625 0.0309375 1.2065625 0.0309375 2.4375 0.0625 C3.5625 2.375 3.5625 2.375 4.4375 5.0625 C3.4475 6.5475 3.4475 6.5475 2.4375 8.0625 C-2.4375 7.1875 -2.4375 7.1875 -3.5625 6.0625 C-3.6875 3.5625 -3.6875 3.5625 -3.5625 1.0625 C-2.5625 0.0625 -2.5625 0.0625 0 0 Z " fill="#FDFDFD" transform="translate(127.5625,542.9375)"/>
<path d="M0 0 C3.3 0 6.6 0 10 0 C10 1.65 10 3.3 10 5 C9 6 9 6 6.125 6.25 C3 6 3 6 1.125 4.6875 C0 3 0 3 0 0 Z " fill="#F2F2F2" transform="translate(608,60)"/>
<path d="M0 0 C2.31 0 4.62 0 7 0 C7.625 1.8125 7.625 1.8125 8 4 C7.01 5.485 7.01 5.485 6 7 C3.375 7.1875 3.375 7.1875 1 7 C-0.0625 4.625 -0.0625 4.625 -1 2 C-0.67 1.34 -0.34 0.68 0 0 Z " fill="#FDFDFD" transform="translate(578,90)"/>
<path d="M0 0 C0.99 0.33 1.98 0.66 3 1 C2.34 1.66 1.68 2.32 1 3 C1.66 3.33 2.32 3.66 3 4 C2.814375 4.556875 2.62875 5.11375 2.4375 5.6875 C1.92448835 8.399133 2.3359276 10.34371039 3 13 C0.13275314 12.42655063 -0.8614515 12.1385485 -3 10 C-3.56949153 3.73559322 -3.56949153 3.73559322 -1.5 1.0625 C-1.005 0.711875 -0.51 0.36125 0 0 Z " fill="#4B3835" transform="translate(204,142)"/>
<path d="M0 0 C2.625 0.375 2.625 0.375 5 1 C5.625 3.375 5.625 3.375 6 6 C5.34 6.66 4.68 7.32 4 8 C1.375 7.625 1.375 7.625 -1 7 C-1.625 4.625 -1.625 4.625 -2 2 C-1.34 1.34 -0.68 0.68 0 0 Z " fill="#050708" transform="translate(449,76)"/>
<path d="M0 0 C2.5625 0.1875 2.5625 0.1875 4.5625 2.1875 C4.1875 4.8125 4.1875 4.8125 3.5625 7.1875 C1.56295254 7.23004356 -0.43791636 7.22830783 -2.4375 7.1875 C-3.4375 6.1875 -3.4375 6.1875 -3.5625 3.6875 C-3.39599509 0.35740177 -3.31519894 0.2550153 0 0 Z " fill="#050708" transform="translate(434.4375,92.8125)"/>
<path d="M0 0 C2.31 0 4.62 0 7 0 C7 2.64 7 5.28 7 8 C4.625 7.6875 4.625 7.6875 2 7 C0 4 0 4 0 0 Z " fill="#F8F8F8" transform="translate(53,150)"/>
<path d="M0 0 C0.66 0 1.32 0 2 0 C2.33 1.98 2.66 3.96 3 6 C4.65 6 6.3 6 8 6 C8 4.02 8 2.04 8 0 C8.99 0.33 9.98 0.66 11 1 C11.25 3.25 11.25 3.25 11 6 C9.70766393 7.37310707 8.37562854 8.71034824 7 10 C7 10.99 7 11.98 7 13 C4.03 10.03 1.06 7.06 -2 4 C-1.34 3.67 -0.68 3.34 0 3 C0 2.01 0 1.02 0 0 Z " fill="#D7D7D7" transform="translate(106,240)"/>
<path d="M0 0 C2.31 0.33 4.62 0.66 7 1 C7.33 2.65 7.66 4.3 8 6 C7.01 5.67 6.02 5.34 5 5 C4.67 5.99 4.34 6.98 4 8 C2.68 7.67 1.36 7.34 0 7 C0.33 5.68 0.66 4.36 1 3 C0.01 3 -0.98 3 -2 3 C-1.34 2.01 -0.68 1.02 0 0 Z " fill="#050708" transform="translate(205,463)"/>
<path d="M0 0 C0.268125 0.5775 0.53625 1.155 0.8125 1.75 C2.13455136 4.39776842 2.13455136 4.39776842 5 8 C1.7 8 -1.6 8 -5 8 C-4.67 6.35 -4.34 4.7 -4 3 C-3.34 3 -2.68 3 -2 3 C-2 2.34 -2 1.68 -2 1 C-1.34 0.67 -0.68 0.34 0 0 Z " fill="#F5F5F5" transform="translate(605,382)"/>
<path d="M0 0 C0 1.98 0 3.96 0 6 C-1.65 6.33 -3.3 6.66 -5 7 C-5 5.68 -5 4.36 -5 3 C-5.99 3 -6.98 3 -8 3 C-7.67 2.01 -7.34 1.02 -7 0 C-4.3333581 -1.33332095 -2.83319697 -0.67102033 0 0 Z " fill="#FDFDFD" transform="translate(210,614)"/>
<path d="M0 0 C0.144375 0.61875 0.28875 1.2375 0.4375 1.875 C0.93152225 4.03258322 0.93152225 4.03258322 2 6 C3.65 6 5.3 6 7 6 C7.33 4.02 7.66 2.04 8 0 C8.66 0.33 9.32 0.66 10 1 C10.25 3.25 10.25 3.25 10 6 C8.70766393 7.37310707 7.37562854 8.71034824 6 10 C6 10.99 6 11.98 6 13 C4.49403892 11.54782324 2.99537896 10.08807139 1.5 8.625 C0.6646875 7.81289062 -0.170625 7.00078125 -1.03125 6.1640625 C-3 4 -3 4 -3 2 C-2.01 1.34 -1.02 0.68 0 0 Z " fill="#EFEFEF" transform="translate(577,90)"/>
<path d="M0 0 C1.2065625 0.0309375 1.2065625 0.0309375 2.4375 0.0625 C2.4375 2.7025 2.4375 5.3425 2.4375 8.0625 C-2.4375 7.1875 -2.4375 7.1875 -3.5625 6.0625 C-3.6875 3.5625 -3.6875 3.5625 -3.5625 1.0625 C-2.5625 0.0625 -2.5625 0.0625 0 0 Z " fill="#FEFEFE" transform="translate(597.5625,392.9375)"/>
<path d="M0 0 C4.29 0 8.58 0 13 0 C13 0.99 13 1.98 13 3 C8.71 3 4.42 3 0 3 C0 2.01 0 1.02 0 0 Z " fill="#E5E5E5" transform="translate(377,450)"/>
<path d="M0 0 C4.83256305 0.41421969 6.82679218 2.46413986 10 6 C7 6 7 6 4.8125 4 C4.214375 3.34 3.61625 2.68 3 2 C2.01 2.33 1.02 2.66 0 3 C0.56371414 6.26954202 1.49962266 7.82575883 4 10 C3.67 10.66 3.34 11.32 3 12 C0.69 9.69 -1.62 7.38 -4 5 C-3.34 4.67 -2.68 4.34 -2 4 C-0.86649466 1.98330173 -0.86649466 1.98330173 0 0 Z " fill="#121415" transform="translate(440,83)"/>
<path d="M0 0 C2.94956528 1.36944102 5.52468811 2.87830409 8 5 C8 5.66 8 6.32 8 7 C5.53199953 5.84826645 3.95216435 4.95216435 2 3 C1.01 3 0.02 3 -1 3 C-0.45276317 6.37462715 0.0549 8.08235 2 11 C-1.36720387 9.60667426 -2.9859524 8.0210714 -5 5 C-3.35 3.35 -1.7 1.7 0 0 Z " fill="#D8D8D8" transform="translate(588,79)"/>
<path d="M0 0 C1.2065625 0.0309375 1.2065625 0.0309375 2.4375 0.0625 C2.7675 1.3825 3.0975 2.7025 3.4375 4.0625 C0.86536866 5.68199011 -0.23919159 6.10658751 -3.3125 5.6875 C-4.055 5.48125 -4.7975 5.275 -5.5625 5.0625 C-3.15007962 0.07683121 -3.15007962 0.07683121 0 0 Z " fill="#DDDDDD" transform="translate(613.5625,54.9375)"/>
<path d="M0 0 C4.0077249 0.95422021 5.23171968 3.342787 7.625 6.625 C5.15699953 5.47326645 3.57716435 4.57716435 1.625 2.625 C0.635 2.625 -0.355 2.625 -1.375 2.625 C-0.86519669 6.39754453 -0.16799818 8.07487123 2.625 10.625 C2.625 11.285 2.625 11.945 2.625 12.625 C1.965 12.625 1.305 12.625 0.625 12.625 C-0.8828125 10.875 -0.8828125 10.875 -2.5 8.625 C-3.03882813 7.8825 -3.57765625 7.14 -4.1328125 6.375 C-4.54273438 5.7975 -4.95265625 5.22 -5.375 4.625 C-2.671875 0.703125 -2.671875 0.703125 0 0 Z " fill="#3AB6C4" transform="translate(438.375,549.375)"/>
<path d="M0 0 C1.32 1.32 2.64 2.64 4 4 C3.9375 7.125 3.9375 7.125 3 10 C2.01 10.66 1.02 11.32 0 12 C0 8.04 0 4.08 0 0 Z M2 4 C3 6 3 6 3 6 Z " fill="#DEDEDE" transform="translate(210,613)"/>
<path d="M0 0 C0 0.99 0 1.98 0 3 C-1.65 3.33 -3.3 3.66 -5 4 C-5 5.65 -5 7.3 -5 9 C-2.525 9.99 -2.525 9.99 0 11 C0 11.33 0 11.66 0 12 C-2.3125 12.25 -2.3125 12.25 -5 12 C-6.875 10.3125 -6.875 10.3125 -8 8 C-7.9203841 4.735748 -7.48252097 3.46643694 -5.125 1.1875 C-3 0 -3 0 0 0 Z " fill="#EFEFEF" transform="translate(600,390)"/>
<path d="M0 0 C0.66 0 1.32 0 2 0 C2 3.3 2 6.6 2 10 C1.01 9.67 0.02 9.34 -1 9 C-1.625 5.625 -1.625 5.625 -2 2 C-1.34 1.34 -0.68 0.68 0 0 Z " fill="#DDDDDD" transform="translate(124,222)"/>
<path d="M0 0 C0.99 0.33 1.98 0.66 3 1 C3 1.66 3 2.32 3 3 C1.35 3.33 -0.3 3.66 -2 4 C-2 5.65 -2 7.3 -2 9 C0.475 9.99 0.475 9.99 3 11 C3 11.33 3 11.66 3 12 C0.6875 12.25 0.6875 12.25 -2 12 C-3.875 10.3125 -3.875 10.3125 -5 8 C-4.92005418 4.72222154 -4.45144039 3.45144039 -2.125 1.125 C-1.42375 0.75375 -0.7225 0.3825 0 0 Z " fill="#D7D7D7" transform="translate(597,70)"/>
<path d="M0 0 C2.0625 0.4375 2.0625 0.4375 4 1 C3.01 1.33 2.02 1.66 1 2 C0.67 3.65 0.34 5.3 0 7 C1.32 7.66 2.64 8.32 4 9 C3.67 10.32 3.34 11.64 3 13 C0.69 10.69 -1.62 8.38 -4 6 C-3.34 5.67 -2.68 5.34 -2 5 C-1.6278958 3.67696283 -1.29369827 2.34262065 -1 1 C-0.67 0.67 -0.34 0.34 0 0 Z " fill="#EBBC95" transform="translate(428,238)"/>
<path d="M0 0 C1.32 0.66 2.64 1.32 4 2 C2 3 2 3 -1 3 C-0.46930939 6.82097239 0.49701566 9.06171403 3 12 C-0.7952131 10.50902342 -2.61042731 8.24299151 -5 5 C-3.35 3.35 -1.7 1.7 0 0 Z " fill="#EFEFEF" transform="translate(588,399)"/>
<path d="M0 0 C2.475 0.495 2.475 0.495 5 1 C5.061875 1.5775 5.12375 2.155 5.1875 2.75 C6.32027301 5.88690987 8.34197595 7.09167504 11 9 C7 9 7 9 5.4375 7.5625 C4.963125 7.046875 4.48875 6.53125 4 6 C3.01 5.67 2.02 5.34 1 5 C0.67 3.35 0.34 1.7 0 0 Z " fill="#49C5D3" transform="translate(278,534)"/>
<path d="M0 0 C3.63 0 7.26 0 11 0 C9.515 1.98 9.515 1.98 8 4 C6.68 4 5.36 4 4 4 C4 3.34 4 2.68 4 2 C2.68 1.34 1.36 0.68 0 0 Z " fill="#0E1011" transform="translate(275,231)"/>
<path d="M0 0 C2.375 0.25 2.375 0.25 5 1 C6.3125 3.0625 6.3125 3.0625 7 5 C4.69 5 2.38 5 0 5 C0 3.35 0 1.7 0 0 Z " fill="#F8F8F8" transform="translate(60,145)"/>
<path d="M0 0 C0.33 0 0.66 0 1 0 C1 3.3 1 6.6 1 10 C-0.32 8.68 -1.64 7.36 -3 6 C-1.125 1.125 -1.125 1.125 0 0 Z " fill="#DCDCDC" transform="translate(149,517)"/>
<path d="M0 0 C2.475 0.495 2.475 0.495 5 1 C5.061875 1.5775 5.12375 2.155 5.1875 2.75 C6.32027301 5.88690987 8.34197595 7.09167504 11 9 C7.05362526 8.43623218 4.16803189 7.4640248 1 5 C0.1875 2.3125 0.1875 2.3125 0 0 Z " fill="#EBBC95" transform="translate(278,384)"/>
<path d="M0 0 C0.99 0 1.98 0 3 0 C3 2.64 3 5.28 3 8 C1.68 7.01 0.36 6.02 -1 5 C-0.67 3.35 -0.34 1.7 0 0 Z " fill="#FEFEFE" transform="translate(117,231)"/>
<path d="M0 0 C0.99 0 1.98 0 3 0 C3 1.65 3 3.3 3 5 C1.02 5 -0.96 5 -3 5 C-1.125 1.125 -1.125 1.125 0 0 Z " fill="#DEDEDE" transform="translate(57,145)"/>
<path d="M0 0 C1.32 0.33 2.64 0.66 4 1 C3.01 1.33 2.02 1.66 1 2 C1.58678331 5.52069985 2.35649921 7.71299843 4 11 C1.69 9.02 -0.62 7.04 -3 5 C-2.01 3.35 -1.02 1.7 0 0 Z " fill="#D7D7D7" transform="translate(116,550)"/>
<path d="M0 0 C2.40072955 2.88087546 4.47291037 5.56404834 6 9 C2.97009905 7.28032649 0.23672704 5.70761694 -2 3 C-2 2.34 -2 1.68 -2 1 C-1.34 0.67 -0.68 0.34 0 0 Z " fill="#49C4D3" transform="translate(285,532)"/>
<path d="M0 0 C1.32 0 2.64 0 4 0 C2.95125002 2.62187494 2.35068687 3.79371361 -0.125 5.25 C-0.74375 5.4975 -1.3625 5.745 -2 6 C-1.125 1.125 -1.125 1.125 0 0 Z " fill="#FCFCFC" transform="translate(620,368)"/>
<path d="M0 0 C1.32 0.33 2.64 0.66 4 1 C3.01 1.33 2.02 1.66 1 2 C1.54723683 5.37462715 2.0549 7.08235 4 10 C0.63279613 8.60667426 -0.9859524 7.0210714 -3 4 C-2.01 2.68 -1.02 1.36 0 0 Z " fill="#EFEFEF" transform="translate(116,230)"/>
<path d="M0 0 C1.32 0 2.64 0 4 0 C3.67 1.32 3.34 2.64 3 4 C1.35 4.33 -0.3 4.66 -2 5 C-1.34 3.35 -0.68 1.7 0 0 Z " fill="#FCFCFC" transform="translate(614,60)"/>
<path d="M0 0 C0.99 0 1.98 0 3 0 C3 2.31 3 4.62 3 7 C2.01 7 1.02 7 0 7 C0 4.69 0 2.38 0 0 Z " fill="#FCFCFC" transform="translate(150,510)"/>
<path d="M0 0 C1.32 0 2.64 0 4 0 C2.63016497 3.16115776 2.0109362 3.9927092 -1 6 C-1.33 5.01 -1.66 4.02 -2 3 C-1.34 2.01 -0.68 1.02 0 0 Z " fill="#E4E4E4" transform="translate(141,527)"/>
<path d="M0 0 C1.32 0 2.64 0 4 0 C4 1.65 4 3.3 4 5 C2.68 5 1.36 5 0 5 C0 3.35 0 1.7 0 0 Z " fill="#FEFEFE" transform="translate(150,150)"/>
<path d="M0 0 C0.66 0 1.32 0 2 0 C2.061875 0.5775 2.12375 1.155 2.1875 1.75 C3.32027301 4.88690987 5.34197595 6.09167504 8 8 C4.17902761 7.46930939 1.93828597 6.50298434 -1 4 C-0.67 2.68 -0.34 1.36 0 0 Z " fill="#EFEFEF" transform="translate(601,65)"/>
<path d="M0 0 C0.33 0 0.66 0 1 0 C1.042721 1.66611905 1.04063832 3.33382885 1 5 C0 6 0 6 -2.5625 6.0625 C-3.7690625 6.0315625 -3.7690625 6.0315625 -5 6 C-3.35830472 3.97945196 -1.69088222 1.97956942 0 0 Z " fill="#E5E5E5" transform="translate(625,50)"/>
<path d="M0 0 C1.32 0 2.64 0 4 0 C2.63016497 3.16115776 2.0109362 3.9927092 -1 6 C-1.042721 4.33388095 -1.04063832 2.66617115 -1 1 C-0.67 0.67 -0.34 0.34 0 0 Z " fill="#FDFDFD" transform="translate(611,377)"/>
<path d="M0 0 C1.32 0 2.64 0 4 0 C2.63016497 3.16115776 2.0109362 3.9927092 -1 6 C-1.042721 4.33388095 -1.04063832 2.66617115 -1 1 C-0.67 0.67 -0.34 0.34 0 0 Z " fill="#F9C79E" transform="translate(291,377)"/>
<path d="M0 0 C2.625 0.1875 2.625 0.1875 5 1 C5.33 1.66 5.66 2.32 6 3 C3.03 3 0.06 3 -3 3 C-2.01 2.01 -1.02 1.02 0 0 Z " fill="#DADADA" transform="translate(580,87)"/>
<path d="M0 0 C2.475 0.495 2.475 0.495 5 1 C5.33 2.65 5.66 4.3 6 6 C4.35 5.67 2.7 5.34 1 5 C0.67 3.35 0.34 1.7 0 0 Z " fill="#D8D8D8" transform="translate(128,534)"/>
<path d="M0 0 C0.268125 0.5775 0.53625 1.155 0.8125 1.75 C2.01719859 4.0325868 3.40798115 5.9737942 5 8 C2.13302508 6.71480435 0.02392288 5.42870746 -2 3 C-2 2.34 -2 1.68 -2 1 C-1.34 0.67 -0.68 0.34 0 0 Z " fill="#D7D7D7" transform="translate(135,532)"/>
</svg>
